<?xml version="1.0" encoding="utf-8"?>
<!-- Generator: Adobe Illustrator 25.3.1, SVG Export Plug-In . SVG Version: 6.00 Build 0)  -->
<svg version="1.1" id="레이어_1" xmlns="http://www.w3.org/2000/svg" xmlns:xlink="http://www.w3.org/1999/xlink" x="0px"
	 y="0px" viewBox="0 0 595.28 841.89" style="enable-background:new 0 0 595.28 841.89;" xml:space="preserve">
<style type="text/css">
	.st0{fill:none;}
	.st1{fill:none;stroke:#000000;stroke-linecap:round;stroke-miterlimit:10;}
	.st2{fill:#FFFFFF;stroke:#000000;stroke-width:1.5;stroke-linecap:round;stroke-miterlimit:10;}
	.st3{fill:#FFFFFF;stroke:#000000;stroke-width:2;stroke-linecap:round;stroke-miterlimit:10;}
	.st4{fill:#FFFFFF;stroke:#000000;stroke-linecap:round;stroke-miterlimit:10;}
	.st5{fill:url(#새_패턴_2);stroke:#000000;stroke-linecap:round;stroke-miterlimit:10;}
	.st6{font-family:'MonotypeCorsiva';}
	.st7{font-size:20.4974px;}
	.st8{stroke:#000000;stroke-linecap:round;stroke-miterlimit:10;}
	.st9{stroke:#000000;stroke-width:0.25;stroke-linecap:round;stroke-miterlimit:10;}
	.st10{stroke:#000000;stroke-width:0.5;stroke-linecap:round;stroke-miterlimit:10;}
	.st11{fill:none;stroke:#000000;stroke-width:0.76;stroke-linecap:round;stroke-miterlimit:10;}
	.st12{font-size:8px;}
	.st13{fill:none;stroke:#000000;stroke-width:3;stroke-miterlimit:10;}
	.st14{fill:none;stroke:#000000;stroke-linecap:round;stroke-miterlimit:10;stroke-dasharray:3.1232,3.1232;}
	.st15{fill:#FFFFFF;}
</style>
<pattern  width="28.35" height="28.35" patternUnits="userSpaceOnUse" id="새_패턴_2" viewBox="32.84 -62.17 28.35 28.35" style="overflow:visible;">
	<g>
		<rect x="32.84" y="-62.17" class="st0" width="28.35" height="28.35"/>
		<g>
			<line class="st1" x1="68.36" y1="-36.99" x2="52.53" y2="-21.15"/>
			<line class="st1" x1="72.36" y1="-37.65" x2="56.19" y2="-21.49"/>
			<line class="st1" x1="75.99" y1="-37.95" x2="52.19" y2="-14.15"/>
			<line class="st1" x1="93.37" y1="-52.33" x2="57.19" y2="-16.15"/>
			<line class="st1" x1="93.37" y1="-49.33" x2="57.19" y2="-13.15"/>
			<line class="st1" x1="93.37" y1="-46.33" x2="57.19" y2="-10.15"/>
			<line class="st1" x1="93.37" y1="-43.33" x2="57.19" y2="-7.15"/>
			<line class="st1" x1="94.37" y1="-41.33" x2="58.19" y2="-5.15"/>
		</g>
		<g>
			<line class="st1" x1="40.01" y1="-36.99" x2="24.18" y2="-21.15"/>
			<line class="st1" x1="44.01" y1="-37.65" x2="27.85" y2="-21.49"/>
			<line class="st1" x1="47.64" y1="-37.95" x2="23.85" y2="-14.15"/>
			<line class="st1" x1="65.02" y1="-52.33" x2="28.85" y2="-16.15"/>
			<line class="st1" x1="65.02" y1="-49.33" x2="28.85" y2="-13.15"/>
			<line class="st1" x1="65.02" y1="-46.33" x2="28.85" y2="-10.15"/>
			<line class="st1" x1="65.02" y1="-43.33" x2="28.85" y2="-7.15"/>
			<line class="st1" x1="66.02" y1="-41.33" x2="29.85" y2="-5.15"/>
		</g>
		<g>
			<line class="st1" x1="36.67" y1="-52.33" x2="0.5" y2="-16.15"/>
			<line class="st1" x1="36.67" y1="-49.33" x2="0.5" y2="-13.15"/>
			<line class="st1" x1="36.67" y1="-46.33" x2="0.5" y2="-10.15"/>
			<line class="st1" x1="36.67" y1="-43.33" x2="0.5" y2="-7.15"/>
			<line class="st1" x1="37.67" y1="-41.33" x2="1.5" y2="-5.15"/>
		</g>
		<g>
			<line class="st1" x1="68.36" y1="-65.33" x2="52.53" y2="-49.5"/>
			<line class="st1" x1="72.36" y1="-66" x2="56.19" y2="-49.83"/>
			<line class="st1" x1="75.99" y1="-66.29" x2="52.19" y2="-42.5"/>
			<line class="st1" x1="93.37" y1="-80.67" x2="57.19" y2="-44.5"/>
			<line class="st1" x1="93.37" y1="-77.67" x2="57.19" y2="-41.5"/>
			<line class="st1" x1="93.37" y1="-74.67" x2="57.19" y2="-38.5"/>
			<line class="st1" x1="93.37" y1="-71.67" x2="57.19" y2="-35.5"/>
			<line class="st1" x1="94.37" y1="-69.67" x2="58.19" y2="-33.5"/>
			<line class="st1" x1="93.37" y1="-61.67" x2="57.19" y2="-25.5"/>
			<line class="st1" x1="93.37" y1="-58.67" x2="57.19" y2="-22.5"/>
			<line class="st1" x1="93.37" y1="-58.67" x2="57.19" y2="-22.5"/>
			<line class="st1" x1="93.37" y1="-55.67" x2="57.19" y2="-19.5"/>
			<line class="st1" x1="93.37" y1="-36.67" x2="57.19" y2="-0.5"/>
		</g>
		<g>
			<line class="st1" x1="40.01" y1="-65.33" x2="24.18" y2="-49.5"/>
			<line class="st1" x1="44.01" y1="-66" x2="27.85" y2="-49.83"/>
			<line class="st1" x1="47.64" y1="-66.29" x2="23.85" y2="-42.5"/>
			<line class="st1" x1="65.02" y1="-80.67" x2="28.85" y2="-44.5"/>
			<line class="st1" x1="65.02" y1="-77.67" x2="28.85" y2="-41.5"/>
			<line class="st1" x1="65.02" y1="-74.67" x2="28.85" y2="-38.5"/>
			<line class="st1" x1="65.02" y1="-71.67" x2="28.85" y2="-35.5"/>
			<line class="st1" x1="66.02" y1="-69.67" x2="29.85" y2="-33.5"/>
			<line class="st1" x1="65.02" y1="-61.67" x2="28.85" y2="-25.5"/>
			<line class="st1" x1="65.02" y1="-58.67" x2="28.85" y2="-22.5"/>
			<line class="st1" x1="65.02" y1="-58.67" x2="28.85" y2="-22.5"/>
			<line class="st1" x1="65.02" y1="-55.67" x2="28.85" y2="-19.5"/>
			<line class="st1" x1="65.02" y1="-36.67" x2="28.85" y2="-0.5"/>
		</g>
		<g>
			<line class="st1" x1="36.67" y1="-80.67" x2="0.5" y2="-44.5"/>
			<line class="st1" x1="36.67" y1="-77.67" x2="0.5" y2="-41.5"/>
			<line class="st1" x1="36.67" y1="-74.67" x2="0.5" y2="-38.5"/>
			<line class="st1" x1="36.67" y1="-71.67" x2="0.5" y2="-35.5"/>
			<line class="st1" x1="37.67" y1="-69.67" x2="1.5" y2="-33.5"/>
			<line class="st1" x1="36.67" y1="-61.67" x2="0.5" y2="-25.5"/>
			<line class="st1" x1="36.67" y1="-58.67" x2="0.5" y2="-22.5"/>
			<line class="st1" x1="36.67" y1="-58.67" x2="0.5" y2="-22.5"/>
			<line class="st1" x1="36.67" y1="-55.67" x2="0.5" y2="-19.5"/>
			<line class="st1" x1="36.67" y1="-36.67" x2="0.5" y2="-0.5"/>
		</g>
		<g>
			<line class="st1" x1="94.37" y1="-98.02" x2="58.19" y2="-61.85"/>
			<line class="st1" x1="93.37" y1="-90.02" x2="57.19" y2="-53.85"/>
			<line class="st1" x1="93.37" y1="-87.02" x2="57.19" y2="-50.85"/>
			<line class="st1" x1="93.37" y1="-87.02" x2="57.19" y2="-50.85"/>
			<line class="st1" x1="93.37" y1="-84.02" x2="57.19" y2="-47.85"/>
			<line class="st1" x1="93.37" y1="-65.02" x2="57.19" y2="-28.85"/>
		</g>
		<g>
			<line class="st1" x1="66.02" y1="-98.02" x2="29.85" y2="-61.85"/>
			<line class="st1" x1="65.02" y1="-90.02" x2="28.85" y2="-53.85"/>
			<line class="st1" x1="65.02" y1="-87.02" x2="28.85" y2="-50.85"/>
			<line class="st1" x1="65.02" y1="-87.02" x2="28.85" y2="-50.85"/>
			<line class="st1" x1="65.02" y1="-84.02" x2="28.85" y2="-47.85"/>
			<line class="st1" x1="65.02" y1="-65.02" x2="28.85" y2="-28.85"/>
		</g>
		<g>
			<line class="st1" x1="37.67" y1="-98.02" x2="1.5" y2="-61.85"/>
			<line class="st1" x1="36.67" y1="-90.02" x2="0.5" y2="-53.85"/>
			<line class="st1" x1="36.67" y1="-87.02" x2="0.5" y2="-50.85"/>
			<line class="st1" x1="36.67" y1="-87.02" x2="0.5" y2="-50.85"/>
			<line class="st1" x1="36.67" y1="-84.02" x2="0.5" y2="-47.85"/>
			<line class="st1" x1="36.67" y1="-65.02" x2="0.5" y2="-28.85"/>
		</g>
		<g>
			<line class="st1" x1="93.37" y1="-93.37" x2="57.19" y2="-57.19"/>
		</g>
		<g>
			<line class="st1" x1="65.02" y1="-93.37" x2="28.85" y2="-57.19"/>
		</g>
		<g>
			<line class="st1" x1="36.67" y1="-93.37" x2="0.5" y2="-57.19"/>
		</g>
	</g>
</pattern>
<path class="st1" d="M298.53,508.09"/>
<line class="st1" x1="341.32" y1="433.76" x2="473.49" y2="435.36"/>
<path class="st1" d="M370.02,435.47"/>
<path class="st1" d="M340.82,435.47"/>
<path class="st1" d="M340.82,435.47"/>
<line class="st1" x1="129.27" y1="433.5" x2="255.74" y2="433.5"/>
<path class="st1" d="M324.69,275.05c0.13-1.34,0.61-2.47,1.33-3.39c-6.08-9.37-16.63-15.56-28.63-15.56
	c-18.84,0-34.12,15.28-34.12,34.12c0,18.84,15.28,34.12,34.12,34.12c18.84,0,34.12-15.28,34.12-34.12c0-2.66-0.31-5.24-0.89-7.73
	C327.03,282.32,324.38,278.39,324.69,275.05z"/>
<line class="st1" x1="269.61" y1="419.43" x2="168.15" y2="360.85"/>
<path class="st1" d="M263.6,376.85c-8.83-15.29-17.65-30.58-26.48-45.86c-4.96-8.59-9.92-17.18-14.88-25.77"/>
<path class="st1" d="M282.01,408.73c-3.53-7.4-15.05-25.31-18.41-31.88"/>
<path class="st1" d="M353.49,337.75c10-18.8,21.3-36.86,31.94-55.3"/>
<path class="st1" d="M357.11,332.16"/>
<line class="st1" x1="331.51" y1="376.5" x2="351.3" y2="342.23"/>
<path class="st1" d="M334.44,371.43"/>
<line class="st1" x1="313.71" y1="407.35" x2="325.86" y2="386.29"/>
<line class="st1" x1="396.68" y1="379.42" x2="426.18" y2="362.39"/>
<path class="st1" d="M397.53,377.74"/>
<line class="st1" x1="356.02" y1="401.71" x2="386.67" y2="384.01"/>
<path class="st1" d="M362.64,397.88"/>
<line class="st1" x1="324.57" y1="419.86" x2="346.17" y2="407.39"/>
<line class="st1" x1="273.13" y1="449.39" x2="168.14" y2="510.01"/>
<line class="st1" x1="265.65" y1="490.3" x2="206.47" y2="592.81"/>
<path class="st1" d="M248.76,519.56"/>
<path class="st1" d="M256.44,506.25"/>
<path class="st1" d="M256.44,506.25"/>
<path class="st1" d="M275.56,473.13"/>
<line class="st1" x1="328.17" y1="488.89" x2="388.11" y2="592.71"/>
<path class="st1" d="M345.5,518.89"/>
<path class="st1" d="M338.19,506.25"/>
<line class="st1" x1="321.52" y1="449.39" x2="429.58" y2="511.78"/>
<line class="st1" x1="299.28" y1="309.97" x2="299.1" y2="242.09"/>
<path class="st1" d="M299.27,308.74"/>
<line class="st1" x1="299.47" y1="387.68" x2="299.3" y2="319.97"/>
<line class="st1" x1="299.58" y1="609.42" x2="299.67" y2="632.81"/>
<line class="st1" x1="299.24" y1="497.34" x2="299.41" y2="553.03"/>
<path class="st1" d="M299.47,501.18"/>
<path class="st1" d="M299.31,521.07"/>
<path class="st1" d="M298.42,508.09"/>
<path class="st1" d="M295.83,609.42c-0.02,9.2-0.03,17.34-0.05,23.43"/>
<path class="st1" d="M295.97,497.34c-0.01,13.24-0.03,33.84-0.06,55.98"/>
<path class="st1" d="M295.91,530.42"/>
<path class="st1" d="M295.92,521.07"/>
<path class="st1" d="M296.78,508.09"/>
<path class="st1" d="M295.89,320.36c0.03,25.96,0.05,48.17,0.06,67.35"/>
<path class="st1" d="M295.79,242.09c0.03,17.55,0.06,44.26,0.09,67.88"/>
<path class="st1" d="M275.21,397.88"/>
<path class="st1" d="M259.58,413.65"/>
<g>
	<circle class="st1" cx="298.78" cy="432.5" r="10.99"/>
	<g>
		<g>
			<path class="st1" d="M298.56,390.9c-1.46,17.37-3.73,32.08-17.84,24.78"/>
			<path class="st1" d="M255.74,433.5c16.64-2.07,31.02-3.15,24.78-17.84"/>
			<path class="st1" d="M298.4,476.09c-1.46-17.37-3.73-32.08-17.84-24.78"/>
			<path class="st1" d="M255.58,433.5c16.64,2.07,31.02,3.15,24.78,17.84"/>
		</g>
		<g>
			<path class="st1" d="M298.51,391.16c1.46,17.37,3.73,32.08,17.84,24.78"/>
			<path class="st1" d="M341.32,433.76c-16.64-2.07-31.02-3.15-24.78-17.84"/>
			<path class="st1" d="M298.67,476.35c1.46-17.37,3.73-32.08,17.84-24.78"/>
			<path class="st1" d="M341.49,433.76c-16.64,2.07-31.02,3.15-24.78,17.84"/>
		</g>
	</g>
</g>
<path class="st2" d="M330.85,282.5c-3.71,0-6.48-4.04-6.16-7.45c0.37-3.92,3.76-6.16,7.45-6.16c0.94,0,1.81,0.27,2.6,0.72
	c0.01-0.01,0.01-0.02,0.02-0.03c-1.62-1.51-3.79-2.45-6.18-2.45c-5.01,0-9.06,4.06-9.06,9.06c0,5.01,4.06,9.06,9.06,9.06
	c3.67,0,6.82-2.19,8.25-5.32c0,0-0.01-0.01-0.01-0.01C335.41,281.59,333.2,282.5,330.85,282.5z"/>
<path class="st1" d="M323.02,479.97"/>
<path class="st1" d="M263.6,472.07c-10.9-9.75-17.77-23.93-17.77-39.71c0-29.42,23.85-53.27,53.27-53.27
	c29.42,0,53.27,23.85,53.27,53.27c0,15.78-6.86,29.96-17.77,39.72"/>
<circle class="st1" cx="299.05" cy="434.43" r="101.08"/>
<path class="st1" d="M225.25,560.27c-42.95-25.23-71.78-71.91-71.78-125.33c0-80.22,65.03-145.26,145.26-145.26
	c39.92,0,76.08,16.1,102.33,42.17c26.51,26.32,42.92,62.79,42.92,103.09c0,54.29-29.78,101.62-73.9,126.55"/>
<path class="st3" d="M311.42,290.21c0,7.74-6.28,14.02-14.02,14.02c-8.38,0-13.86-7.52-14.02-14.02c-0.06-2.43,1.43-6.22,1.98-7.14
	c0.36-0.6,0.78-1.18,0.78-1.19s0.32-0.45,0.67-0.86c2.77-3.24,7.18-4.91,10.59-4.84C304.06,276.33,311.42,281.92,311.42,290.21z"/>
<circle class="st3" cx="328.17" cy="531.27" r="11.42"/>
<circle class="st3" cx="269.57" cy="387.72" r="5.17"/>
<path class="st4" d="M287.09,291.59"/>
<path class="st5" d="M303.46,295.68c-1.34-0.14-2.52,0.71-2.76,1.82c-0.32,1.49,1.2,2.74,2.29,2.84c0.54,0.05,0.62-0.22,2.13-0.79
	c1.62-0.61,1.94-0.46,2.58-0.96c0.66-0.51,1.43-1.52,1.2-2.17C308.43,295.04,303.74,295.64,303.46,295.68z"/>
<path class="st5" d="M287.19,280.59c0.81,0.24,2,0.65,3.33,1.4c1.11,0.62,1.43,0.98,2.27,1.34c0.3,0.13,1.56,0.64,4.01,0.47
	c3.98-0.29,5.42-1.99,6.55-1.14c1.06,0.79,0.52,2.83,1.54,3.14c0.68,0.21,1.35-0.58,1.6-0.33c0.26,0.24-0.08,1.34-0.87,1.87
	c-0.89,0.59-1.56-0.07-2.47,0.4c-1.35,0.69-1.29,2.83-1.87,2.81c-0.48-0.01-0.46-1.49-1.27-1.74c-0.73-0.23-1.91,0.6-2.01,1.47
	c-0.09,0.78,0.76,1.03,0.87,2.07c0.12,1.11-0.73,2-0.8,2.07c-1.44,1.46-4.05,0.53-4.41,0.4c-0.43-0.15-2.44-0.87-2.74-2.34
	c-0.15-0.72,0.22-1.16-0.13-1.6c-0.41-0.53-1.46-0.62-2.07-0.2c-0.31,0.21-0.29,0.4-0.67,1c-0.21,0.33-1.06,1.67-1.6,1.54
	c-0.37-0.09-0.32-0.76-0.8-1.87c-0.33-0.77-2-1.33-2.28-1.67"/>
<path class="st4" d="M283.71,289.68"/>
<path class="st5" d="M303.96,278.15c-0.31,0.26-1.63,1.44-2.81,1.56c-0.4,0.04-1.8,0.12-3.01-0.88c-1-0.82-1.29-1.89-1.37-2.25"/>
<g>
	<g>
		<path d="M274.87,484.58l0.76-0.07c0.4,1.21,1.3,2.19,2.86,2.86c1.78,0.76,3.52,0.51,4.08-0.79c0.34-0.8-0.06-1.6-0.85-2.44
			l-1.29-1.39c-0.83-0.9-1.47-1.94-1.04-2.95c0.55-1.29,2.49-1.79,4.6-0.88c1.5,0.64,2.45,1.71,2.83,2.7l-0.72,0.12
			c-0.38-0.88-1.15-1.79-2.45-2.34c-1.61-0.69-3.04-0.2-3.42,0.68c-0.36,0.85,0.2,1.65,0.91,2.41l1.28,1.36c0.95,1.01,1.44,1.98,1,3
			c-0.7,1.64-2.92,2-5.25,1.01C276.42,487.11,275.31,485.98,274.87,484.58z"/>
		<path d="M290.98,487.58c0.18-2.8,2.8-6.12,6.79-5.86c2.96,0.19,4.31,2.01,4.15,4.49c-0.18,2.8-2.8,6.12-6.79,5.86
			C292.17,491.88,290.82,490.06,290.98,487.58z M301.03,486.23c0.14-2.19-0.83-3.78-3.35-3.94c-3.46-0.22-5.66,2.9-5.81,5.28
			c-0.14,2.19,0.83,3.78,3.35,3.94C298.69,491.73,300.88,488.61,301.03,486.23z"/>
		<path d="M309.14,480.73l0.85-0.23l0.01,9.9l5.81-1.55l-0.01,0.59l-6.66,1.78L309.14,480.73z"/>
	</g>
</g>
<path id="SVGID_x5F_1_x5F_" class="st0" d="M208.08,559.11c62.77,50.06,154.07,39.78,204.13-22.99"/>
<text><textPath  xlink:href="#SVGID_x5F_1_x5F_" startOffset="10.791%">
<tspan  style="font-family:'Onyx'; font-size:40.9947px; letter-spacing:75;">LODESTAR</tspan></textPath>
</text>
<path id="SVGID_x5F_2_x5F_" class="st0" d="M193.9,566.89c72.23,59.64,178.94,49.46,238.58-22.77"/>
<text><textPath  xlink:href="#SVGID_x5F_2_x5F_" startOffset="23.532%">
<tspan  style="font-family:'ImprintMT-Shadow'; font-size:13px; letter-spacing:200;">SINCE </tspan><tspan  style="font-family:'ImprintMT-Shadow'; font-size:13px; letter-spacing:255;">2018</tspan></textPath>
</text>
<g>
	<g>
		<path d="M306.98,370.74l0.92,0.14l0.28,4.55l0.12,1.72l0.06,0.01l1.39-1.49l3.85-3.92l0.92,0.14l-3.11,7.22l-0.63-0.1l2.06-4.77
			c0.28-0.6,0.63-1.35,0.91-1.93l-0.06-0.01l-1.42,1.45l-3.93,4.03l-0.55-0.08l-0.34-4.68l-0.11-1.68l-0.06-0.01
			c-0.24,0.61-0.5,1.35-0.75,1.96l-2.06,4.77l-0.62-0.1L306.98,370.74z"/>
		<path d="M321.14,374.1l4.9,1.89l-0.27,0.35l-4.29-1.66l-1.77,2.46l3.63,1.4l-0.27,0.35l-3.61-1.39l-2.07,2.84l4.43,1.71
			l-0.27,0.35l-5.01-1.94L321.14,374.1z"/>
		<path d="M331.52,379.03l2.11,1.33c1.52,0.96,2.22,1.98,1.59,2.98c-0.82,1.3-2.71,1.18-4.54,0.03l-1.72-1.09l-2.62,2.45l-0.55-0.35
			L331.52,379.03z M330.75,382.93c1.81,1.14,3.24,1.15,3.89,0.11c0.5-0.8-0.04-1.57-1.47-2.47l-1.43-0.9l-2.47,2.33L330.75,382.93z
			 M330.67,383.29l0.6,0.09l-0.3,4.29l-0.6-0.38L330.67,383.29z"/>
		<path d="M336.75,388.52c1.57-1.63,4.75-2.2,7.02-0.02c0.81,0.78,1,1.66,0.93,2.4l-0.53-0.15c0.08-0.64-0.08-1.35-0.72-1.96
			c-1.98-1.91-4.83-1.25-6.17,0.13c-1.04,1.08-1.23,2.49,0.18,3.84c0.66,0.64,1.36,0.93,2.21,1.1l0.02,0.47
			c-0.95-0.19-1.78-0.54-2.58-1.32C335.49,391.46,335.56,389.76,336.75,388.52z"/>
		<path d="M349.47,395.49l0.36,0.54l-4.35,1.52c-0.37,0.11-0.63,0.25-0.86,0.4c-1.01,0.68-1.17,1.71-0.31,2.99
			c0.7,1.04,1.93,1.62,3.69,1l4.69-1.64l0.36,0.53l-4.77,1.66c-2.05,0.72-3.48-0.05-4.36-1.37c-1.02-1.51-0.94-2.85,0.26-3.66
			c0.25-0.17,0.53-0.31,0.88-0.44L349.47,395.49z"/>
		<path d="M356,407.04l0.94,2.32c0.67,1.67,0.65,2.9-0.45,3.34c-1.42,0.58-2.9-0.62-3.71-2.62l-0.76-1.89l-3.56,0.46l-0.25-0.6
			L356,407.04z M352.82,410l0.43,0.42l-2.74,3.31l-0.27-0.66L352.82,410z M353.1,409.76c0.8,1.99,1.96,2.82,3.1,2.36
			c0.88-0.36,0.88-1.29,0.25-2.87l-0.63-1.57l-3.37,0.46L353.1,409.76z"/>
		<path d="M355.32,419.76l4.08-2.51l0.13,0.65l-2.18,1.3c-0.51,0.3-0.98,0.57-1.49,0.88l0.01,0.05c0.63,0.37,1.27,0.72,1.9,1.09
			l2.78,1.64l0.14,0.68l-5.24-3.14l-3.2-0.18l-0.13-0.63L355.32,419.76z"/>
	</g>
</g>
<g>
	<g>
		<path d="M354.4,339.09l0.55,0.32l-1.85,4.14c-0.32,0.77-0.67,1.57-1.03,2.35l0.05,0.03c0.88-0.44,1.84-0.93,2.74-1.34l4.91-2.33
			l0.58,0.34l-8.36,3.89l-0.65-0.38L354.4,339.09z"/>
		<path d="M364.43,345.51l4.23,3.11l-0.35,0.27l-3.71-2.73l-2.36,1.91l3.14,2.31l-0.35,0.27l-3.11-2.29l-2.75,2.19l3.83,2.81
			l-0.35,0.27l-4.33-3.18L364.43,345.51z"/>
		<path d="M373.05,352.42l0.51,0.47l-1.73,5.75l-0.53,1.6l0.04,0.04c0.6-0.43,1.23-0.91,1.87-1.32l4.1-2.61l0.47,0.43l-6.62,4.22
			l-0.49-0.45l1.74-5.72l0.55-1.67l-0.04-0.04c-0.62,0.45-1.25,0.88-1.87,1.28l-4.14,2.66l-0.47-0.43L373.05,352.42z"/>
		<path d="M382.05,361.46l0.42,0.49l-4.14,2c-0.35,0.15-0.6,0.31-0.81,0.49c-0.93,0.79-0.97,1.83,0.03,3
			c0.82,0.96,2.1,1.4,3.78,0.58l4.47-2.16l0.42,0.49l-4.54,2.19c-1.96,0.94-3.46,0.34-4.48-0.87c-1.18-1.39-1.26-2.73-0.15-3.67
			c0.23-0.2,0.49-0.36,0.83-0.53L382.05,361.46z"/>
		<path d="M383.25,373.17l0.5,0.26c-0.25,0.92-0.09,1.89,0.61,2.92c0.8,1.18,1.99,1.72,2.87,1.12c0.54-0.37,0.62-1.03,0.47-1.86
			l-0.24-1.39c-0.15-0.89-0.12-1.8,0.56-2.26c0.87-0.59,2.28-0.13,3.23,1.27c0.67,1,0.83,2.04,0.66,2.81l-0.5-0.21
			c0.12-0.7,0.02-1.58-0.57-2.44c-0.72-1.07-1.81-1.33-2.41-0.93c-0.58,0.39-0.55,1.11-0.42,1.87l0.24,1.36
			c0.18,1.01,0.09,1.81-0.61,2.28c-1.11,0.75-2.64,0.1-3.69-1.45C383.18,375.37,382.95,374.22,383.25,373.17z"/>
	</g>
</g>
<g>
	<g>
		<path d="M284.58,309.41h-4.14l0.16-0.59h9.15l-0.16,0.59h-4.14l-2.53,9.53h-0.88L284.58,309.41z"/>
		<path d="M296.65,311.38c2.13,0,2.96,1.1,2.96,2.62c0,0.52-0.15,0.99-0.28,1.29h-6.86c-0.53,2.31,0.98,3.3,2.94,3.3
			c0.87,0,1.75-0.33,2.46-0.71l0.37,0.46c-0.78,0.43-1.84,0.8-2.96,0.8c-2.28,0-3.75-1.07-3.75-3.04
			C291.53,313.28,294.12,311.38,296.65,311.38z M298.71,314.78c0.08-0.29,0.12-0.56,0.12-0.88c0-0.99-0.58-1.97-2.25-1.97
			c-1.74,0-3.44,1.18-3.97,2.85H298.71z"/>
		<path d="M305.17,311.56h0.71l-0.3,1.4h0.08c0.82-0.87,1.82-1.58,3.08-1.58c0.28,0,0.57,0.03,0.89,0.13l-0.33,0.6
			c-0.18-0.07-0.41-0.12-0.77-0.12c-1.04,0-2.3,0.76-3.19,2.08l-1.29,4.88h-0.84L305.17,311.56z"/>
		<path d="M313.72,311.56h0.71l-0.3,1.4h0.08c0.81-0.87,1.82-1.58,3.08-1.58c0.28,0,0.57,0.03,0.89,0.13l-0.33,0.6
			c-0.18-0.07-0.41-0.12-0.77-0.12c-1.04,0-2.3,0.76-3.19,2.08l-1.29,4.88h-0.84L313.72,311.56z"/>
		<path d="M320.37,316.46c0-2.84,2.62-5.09,5.34-5.09c1.16,0,2.02,0.48,2.54,1.2h0.08l0.38-1.02h0.7l-1.98,7.38h-0.71l0.22-1.17
			h-0.08c-1.01,0.79-2.27,1.36-3.63,1.36C321.51,319.12,320.37,318.19,320.37,316.46z M327.11,316.97l1.03-3.7
			c-0.73-0.95-1.51-1.33-2.43-1.33c-2.33,0-4.47,2.19-4.47,4.41c0,1.49,0.85,2.22,2.2,2.22
			C324.7,318.56,325.95,317.99,327.11,316.97z"/>
	</g>
</g>
<g>
	<g>
		<path d="M259.71,272.54l0.34-0.65l3.43,0.91l1.3,0.33l0.02-0.04l-0.75-1.41l-1.91-3.85l0.34-0.66l4.53,4.11l-0.23,0.45l-2.99-2.72
			c-0.37-0.36-0.84-0.8-1.19-1.16l-0.02,0.04l0.71,1.42l1.97,3.94l-0.2,0.39l-3.54-0.9l-1.27-0.34l-0.02,0.04
			c0.39,0.33,0.87,0.71,1.25,1.04l3,2.72l-0.23,0.44L259.71,272.54z"/>
		<path d="M267.82,266.02c-1.18-1.13-1.67-3.55-0.05-5.23c1.2-1.25,2.52-1.16,3.56-0.16c1.18,1.13,1.67,3.55,0.05,5.23
			C270.18,267.11,268.86,267.02,267.82,266.02z M271,261.03c-0.92-0.89-2-1.05-3.02,0.01c-1.4,1.46-0.84,3.61,0.16,4.58
			c0.92,0.89,2,1.05,3.02-0.01C272.57,264.15,272,261.99,271,261.03z"/>
		<path d="M275.2,259.17c-0.82-1.42-0.63-3.87,1.4-5.04c1.5-0.87,2.74-0.42,3.47,0.83c0.82,1.42,0.63,3.87-1.4,5.04
			C277.17,260.87,275.92,260.42,275.2,259.17z M279.63,255.26c-0.64-1.11-1.63-1.56-2.9-0.83c-1.75,1.01-1.81,3.24-1.11,4.44
			c0.64,1.11,1.63,1.56,2.9,0.83C280.28,258.69,280.33,256.46,279.63,255.26z"/>
		<path d="M284.55,250.89l0.53-0.13l3.05,3.56l0.83,1.02l0.05-0.01c-0.03-0.57-0.06-1.19-0.06-1.78l0.06-3.78l0.49-0.12l-0.09,6.12
			l-0.51,0.13l-3.02-3.55l-0.86-1.07l-0.05,0.01c0.03,0.59,0.04,1.19,0.03,1.77l-0.04,3.83l-0.49,0.12L284.55,250.89z"/>
	</g>
</g>
<text transform="matrix(1 0 0 1 288.8013 237.3799)" class="st6 st7">N</text>
<text transform="matrix(1 0 0 1 474.1562 442.417)" class="st6 st7">E</text>
<text transform="matrix(1 0 0 1 291.3481 649.6641)" class="st6 st7">S</text>
<text transform="matrix(1 0 0 1 108.709 439.7148)" class="st6 st7">W</text>
<line class="st1" x1="299.25" y1="653.54" x2="299.34" y2="726.47"/>
<path class="st1" d="M295.5,653.54c-0.02,28.67-0.03,54.04-0.05,73.04"/>
<line class="st1" x1="295.45" y1="726.58" x2="299.34" y2="726.47"/>
<line class="st1" x1="299.28" y1="209.83" x2="299.34" y2="223.67"/>
<path class="st1" d="M295.48,209.83c-0.02,8.97-0.02,7.93-0.03,13.87"/>
<line class="st1" x1="297.39" y1="198.31" x2="287.94" y2="208.78"/>
<line class="st1" x1="287.94" y1="199.29" x2="287.94" y2="208.78"/>
<path class="st1" d="M297.39,102.63c0.31,31.4,0.31,63.85,0,95.67"/>
<path class="st1" d="M297.39,188.06c-3.83,4.25-7.67,8.49-11.5,12.74c0.11-5.01,0.32-10.06,0.07-15.07c0,0.06,0.01,0.13,0.01,0.19
	c0.63-4.91-6.21-7.47-5.35-12.59c4.27-24.77,11.1-46.97,16.63-70.7"/>
<line class="st5" x1="297.39" y1="198.31" x2="306.85" y2="208.78"/>
<path class="st5" d="M297.54,102.62c5.29,23.73,11.27,46.79,17.25,70.7c-1.71,4.27-5.12,7.69-5.97,12.59c0-0.06,0.01-0.13,0.01-0.19
	c-0.25,5.01-0.04,10.06,0.07,15.07c-3.83-4.25-7.67-8.49-11.5-12.74v10.25c0.31-31.82,0.31-64.27,0-95.67"/>
<line class="st1" x1="293.28" y1="202.86" x2="293.28" y2="209.83"/>
<polyline class="st8" points="301.56,209.83 301.56,203.54 297.39,198.31 293.28,202.86 293.28,208.78 293.28,209.83 301.56,209.83 
	"/>
<line class="st1" x1="295.45" y1="669.71" x2="275.56" y2="704.02"/>
<line class="st1" x1="275.56" y1="760.39" x2="275.56" y2="704.02"/>
<line class="st1" x1="295.45" y1="676.54" x2="275.56" y2="710.85"/>
<line class="st1" x1="295.45" y1="683.38" x2="275.56" y2="717.68"/>
<line class="st1" x1="295.45" y1="690.21" x2="275.56" y2="724.52"/>
<line class="st1" x1="295.45" y1="697.04" x2="275.56" y2="731.35"/>
<line class="st1" x1="295.45" y1="703.87" x2="275.56" y2="738.18"/>
<line class="st1" x1="295.45" y1="710.71" x2="275.56" y2="745.01"/>
<line class="st1" x1="295.45" y1="718.39" x2="275.56" y2="752.7"/>
<line class="st1" x1="295.45" y1="726.08" x2="275.56" y2="760.39"/>
<line class="st1" x1="299.48" y1="669.71" x2="319.37" y2="704.02"/>
<line class="st1" x1="319.37" y1="760.39" x2="319.37" y2="704.02"/>
<line class="st1" x1="299.48" y1="676.54" x2="319.37" y2="710.85"/>
<line class="st1" x1="299.48" y1="683.38" x2="319.37" y2="717.68"/>
<line class="st1" x1="299.48" y1="690.21" x2="319.37" y2="724.52"/>
<line class="st1" x1="299.48" y1="697.04" x2="319.37" y2="731.35"/>
<line class="st1" x1="299.48" y1="703.87" x2="319.37" y2="738.18"/>
<line class="st1" x1="299.48" y1="710.71" x2="319.37" y2="745.01"/>
<line class="st1" x1="299.48" y1="718.39" x2="319.37" y2="752.7"/>
<line class="st1" x1="299.48" y1="726.08" x2="319.37" y2="760.39"/>
<path class="st1" d="M255.17,50.83c25.11-1.63,43.22-0.12,24.78-17.84"/>
<path class="st1" d="M309.94,33.88"/>
<path class="st1" d="M466.55,199.04"/>
<path class="st1" d="M309.94,70.07"/>
<path class="st1" d="M466.55,199.54"/>
<path class="st1" d="M255.17,50.83c25.11,1.63,43.22,0.12,24.78,17.84"/>
<path class="st1" d="M297.64,8.07c-1.63,25.11-0.12,43.22-17.84,24.78"/>
<path class="st1" d="M297.64,93.54c-1.63-25.11-0.12-43.22-17.84-24.78"/>
<path class="st1" d="M340.11,50.88c-25.11-1.63-43.22-0.12-24.78-17.84"/>
<path class="st1" d="M285.33,33.88"/>
<path class="st1" d="M285.33,70.07"/>
<path class="st1" d="M340.11,50.88c-25.11,1.63-43.22,0.12-24.78,17.84"/>
<path class="st1" d="M297.64,8.12c1.63,25.11,0.12,43.22,17.84,24.78"/>
<path class="st1" d="M297.64,93.59c1.63-25.11,0.12-43.22,17.84-24.78"/>
<path class="st1" d="M168.31,202.86c12.56-0.81,21.61-0.06,12.39-8.92"/>
<path class="st1" d="M195.7,194.39"/>
<path class="st1" d="M195.7,212.48"/>
<path class="st1" d="M168.31,202.86c12.56,0.81,21.61,0.06,12.39,8.92"/>
<path class="st1" d="M189.55,181.48c-0.81,12.56-0.06,21.61-8.92,12.39"/>
<path class="st1" d="M189.55,224.21c-0.81-12.56-0.06-21.61-8.92-12.39"/>
<path class="st1" d="M210.78,202.89c-12.56-0.81-21.61-0.06-12.39-8.92"/>
<path class="st1" d="M183.4,194.39"/>
<path class="st1" d="M183.39,212.48"/>
<path class="st1" d="M210.78,202.89c-12.56,0.81-21.61,0.06-12.39,8.92"/>
<path class="st1" d="M189.55,181.51c0.81,12.56,0.06,21.61,8.92,12.39"/>
<path class="st1" d="M189.55,224.24c0.81-12.56,0.06-21.61,8.92-12.39"/>
<g>
	<path class="st1" d="M419.89,197.67c9.47-0.61,16.31-0.04,9.35-6.73"/>
	<path class="st1" d="M440.56,191.28"/>
	<path class="st1" d="M440.56,204.93"/>
	<path class="st1" d="M419.89,197.67c9.47,0.61,16.31,0.04,9.35,6.73"/>
	<path class="st1" d="M435.91,181.54c-0.61,9.47-0.04,16.31-6.73,9.35"/>
	<path class="st1" d="M435.91,213.78c-0.61-9.47-0.04-16.31-6.73-9.35"/>
	<path class="st1" d="M451.94,197.69c-9.47-0.61-16.31-0.04-9.35-6.73"/>
	<path class="st1" d="M431.27,191.28"/>
	<path class="st1" d="M431.27,204.93"/>
	<path class="st1" d="M451.94,197.69c-9.47,0.61-16.31,0.04-9.35,6.73"/>
	<path class="st1" d="M435.91,181.56c0.61,9.47,0.04,16.31,6.73,9.35"/>
	<path class="st1" d="M435.91,213.8c0.61-9.47,0.04-16.31,6.73-9.35"/>
</g>
<g>
	<path class="st1" d="M94.17,283.27c20.72-1.34,35.66-0.1,20.45-14.72"/>
	<path class="st1" d="M139.36,269.28"/>
	<path class="st1" d="M139.36,299.14"/>
	<path class="st1" d="M94.17,283.27c20.72,1.34,35.66,0.1,20.45,14.72"/>
	<path class="st1" d="M129.21,247.99c-1.34,20.72-0.1,35.66-14.72,20.45"/>
	<path class="st1" d="M129.21,318.5c-1.34-20.72-0.1-35.66-14.72-20.45"/>
	<path class="st1" d="M164.25,283.31c-20.72-1.34-35.66-0.1-20.45-14.72"/>
	<path class="st1" d="M119.06,269.28"/>
	<path class="st1" d="M119.05,299.14"/>
	<path class="st1" d="M164.25,283.31c-20.72,1.34-35.66,0.1-20.45,14.72"/>
	<path class="st1" d="M129.21,248.03c1.34,20.72,0.1,35.66,14.72,20.45"/>
	<path class="st1" d="M129.21,318.55c1.34-20.72,0.1-35.66,14.72-20.45"/>
</g>
<g>
	<path class="st1" d="M136.81,607.73c10.9-0.71,18.76-0.05,10.76-7.74"/>
	<path class="st1" d="M160.58,600.37"/>
	<path class="st1" d="M160.58,616.08"/>
	<path class="st1" d="M136.81,607.73c10.9,0.71,18.76,0.05,10.76,7.74"/>
	<path class="st1" d="M155.24,589.17c-0.71,10.9-0.05,18.76-7.74,10.76"/>
	<path class="st1" d="M155.24,626.26c-0.71-10.9-0.05-18.76-7.74-10.76"/>
	<path class="st1" d="M173.67,607.75c-10.9-0.71-18.76-0.05-10.76-7.74"/>
	<path class="st1" d="M149.9,600.37"/>
	<path class="st1" d="M149.9,616.08"/>
	<path class="st1" d="M173.67,607.75c-10.9,0.71-18.76,0.05-10.76,7.74"/>
	<path class="st1" d="M155.24,589.2c0.71,10.9,0.05,18.76,7.74,10.76"/>
	<path class="st1" d="M155.24,626.29c0.71-10.9,0.05-18.76,7.74-10.76"/>
</g>
<g>
	<path class="st1" d="M423.72,615.79c19.99-1.3,34.4-0.09,19.73-14.2"/>
	<path class="st1" d="M467.32,602.3"/>
	<path class="st1" d="M467.32,631.1"/>
	<path class="st1" d="M423.72,615.79c19.99,1.3,34.4,0.09,19.73,14.2"/>
	<path class="st1" d="M457.52,581.76c-1.3,19.99-0.09,34.4-14.2,19.73"/>
	<path class="st1" d="M457.52,649.78c-1.3-19.99-0.09-34.4-14.2-19.73"/>
	<path class="st1" d="M491.33,615.83c-19.99-1.3-34.4-0.09-19.73-14.2"/>
	<path class="st1" d="M447.73,602.3"/>
	<path class="st1" d="M447.73,631.1"/>
	<path class="st1" d="M491.33,615.83c-19.99,1.3-34.4,0.09-19.73,14.2"/>
	<path class="st1" d="M457.52,581.8c1.3,19.99,0.09,34.4,14.2,19.73"/>
	<path class="st1" d="M457.52,649.82c1.3-19.99,0.09-34.4,14.2-19.73"/>
</g>
<g>
	<path class="st1" d="M448.6,266.24c12.4-0.8,21.35-0.06,12.24-8.81"/>
	<path class="st1" d="M475.66,257.86"/>
	<path class="st1" d="M475.66,275.74"/>
	<path class="st1" d="M448.6,266.24c12.4,0.8,21.35,0.06,12.24,8.81"/>
	<path class="st1" d="M469.58,245.12c-0.8,12.4-0.06,21.35-8.81,12.24"/>
	<path class="st1" d="M469.58,287.33c-0.8-12.4-0.06-21.35-8.81-12.24"/>
	<path class="st1" d="M490.56,266.26c-12.4-0.8-21.35-0.06-12.24-8.81"/>
	<path class="st1" d="M463.5,257.86"/>
	<path class="st1" d="M463.5,275.74"/>
	<path class="st1" d="M490.56,266.26c-12.4,0.8-21.35,0.06-12.24,8.81"/>
	<path class="st1" d="M469.58,245.14c0.8,12.4,0.06,21.35,8.81,12.24"/>
	<path class="st1" d="M469.58,287.36c0.8-12.4,0.06-21.35,8.81-12.24"/>
</g>
<g>
	<g>
		<path class="st1" d="M235.05,182.82c-0.16,1.54-0.01,2.52-0.82,3.44c-0.85,0.97-1.65,0.79-3.66,1.09"/>
		<path class="st1" d="M235.05,182.82c0.16,1.54,0.01,2.52,0.82,3.44c0.85,0.97,1.65,0.79,3.66,1.09"/>
	</g>
	<g>
		<path class="st1" d="M235.05,191.91c-0.16-1.54-0.01-2.52-0.82-3.44c-0.85-0.97-1.65-0.79-3.66-1.09"/>
		<path class="st1" d="M235.05,191.91c0.16-1.54,0.01-2.52,0.82-3.44c0.85-0.97,1.65-0.79,3.66-1.09"/>
	</g>
</g>
<g>
	<g>
		<path class="st1" d="M119.05,303.82c-0.16,1.54-0.01,2.52-0.82,3.44c-0.85,0.97-1.65,0.79-3.66,1.09"/>
		<path class="st1" d="M119.05,303.82c0.16,1.54,0.01,2.52,0.82,3.44c0.85,0.97,1.65,0.79,3.66,1.09"/>
	</g>
	<g>
		<path class="st1" d="M119.05,312.91c-0.16-1.54-0.01-2.52-0.82-3.44c-0.85-0.97-1.65-0.79-3.66-1.09"/>
		<path class="st1" d="M119.05,312.91c0.16-1.54,0.01-2.52,0.82-3.44c0.85-0.97,1.65-0.79,3.66-1.09"/>
	</g>
</g>
<g>
	<g>
		<path class="st1" d="M95.23,596.74c-0.25,2.42-0.01,3.96-1.29,5.4c-1.33,1.52-2.6,1.24-5.76,1.72"/>
		<path class="st1" d="M95.22,596.74c0.25,2.42,0.01,3.96,1.29,5.4c1.33,1.52,2.6,1.24,5.76,1.72"/>
	</g>
	<g>
		<path class="st1" d="M95.23,611.03c-0.25-2.42-0.01-3.96-1.29-5.4c-1.33-1.52-2.6-1.24-5.76-1.72"/>
		<path class="st1" d="M95.23,611.03c0.25-2.42,0.01-3.96,1.29-5.4c1.33-1.52,2.6-1.24,5.76-1.72"/>
	</g>
</g>
<g>
	<g>
		<path class="st1" d="M105.7,525.88c-0.16,1.54-0.01,2.52-0.82,3.44c-0.85,0.97-1.65,0.79-3.66,1.09"/>
		<path class="st1" d="M105.7,525.88c0.16,1.54,0.01,2.52,0.82,3.44c0.85,0.97,1.65,0.79,3.66,1.09"/>
	</g>
	<g>
		<path class="st1" d="M105.7,534.97c-0.16-1.54-0.01-2.52-0.82-3.44c-0.85-0.97-1.65-0.79-3.66-1.09"/>
		<path class="st1" d="M105.7,534.97c0.16-1.54,0.01-2.52,0.82-3.44c0.85-0.97,1.65-0.79,3.66-1.09"/>
	</g>
</g>
<g>
	<g>
		<path class="st1" d="M202.92,635.24c-0.34,3.24-0.02,5.3-1.73,7.24c-1.79,2.03-3.48,1.66-7.71,2.3"/>
		<path class="st1" d="M202.92,635.24c0.34,3.24,0.02,5.3,1.73,7.24c1.79,2.03,3.48,1.66,7.71,2.3"/>
	</g>
	<g>
		<path class="st1" d="M202.93,654.39c-0.34-3.24-0.02-5.3-1.73-7.24c-1.79-2.03-3.48-1.66-7.71-2.3"/>
		<path class="st1" d="M202.92,654.39c0.34-3.24,0.02-5.3,1.73-7.24c1.79-2.03,3.48-1.66,7.71-2.3"/>
	</g>
</g>
<g>
	<g>
		<path class="st1" d="M522.68,204.04c-0.21,2.01-0.01,3.29-1.07,4.49c-1.11,1.26-2.16,1.03-4.78,1.43"/>
		<path class="st1" d="M522.68,204.04c0.21,2.01,0.01,3.29,1.07,4.49c1.11,1.26,2.16,1.03,4.78,1.43"/>
	</g>
	<g>
		<path class="st1" d="M522.68,215.91c-0.21-2.01-0.01-3.29-1.07-4.49c-1.11-1.26-2.16-1.03-4.78-1.43"/>
		<path class="st1" d="M522.68,215.91c0.21-2.01,0.01-3.29,1.07-4.49c1.11-1.26,2.16-1.03,4.78-1.43"/>
	</g>
</g>
<g>
	<g>
		<path class="st1" d="M524.05,404.82c-0.16,1.54-0.01,2.52-0.82,3.44c-0.85,0.97-1.65,0.79-3.66,1.09"/>
		<path class="st1" d="M524.05,404.82c0.16,1.54,0.01,2.52,0.82,3.44c0.85,0.97,1.65,0.79,3.66,1.09"/>
	</g>
	<g>
		<path class="st1" d="M524.05,413.91c-0.16-1.54-0.01-2.52-0.82-3.44c-0.85-0.97-1.65-0.79-3.66-1.09"/>
		<path class="st1" d="M524.05,413.91c0.16-1.54,0.01-2.52,0.82-3.44c0.85-0.97,1.65-0.79,3.66-1.09"/>
	</g>
</g>
<g>
	<g>
		<path class="st1" d="M522.24,555.04c-0.3,2.86-0.02,4.68-1.52,6.39c-1.58,1.79-3.08,1.47-6.81,2.03"/>
		<path class="st1" d="M522.24,555.04c0.3,2.86,0.02,4.68,1.52,6.39c1.58,1.79,3.08,1.47,6.81,2.03"/>
	</g>
	<g>
		<path class="st1" d="M522.24,571.93c-0.3-2.86-0.02-4.68-1.52-6.39c-1.58-1.79-3.08-1.47-6.81-2.03"/>
		<path class="st1" d="M522.24,571.93c0.3-2.86,0.02-4.68,1.52-6.39c1.58-1.79,3.08-1.47,6.81-2.03"/>
	</g>
</g>
<g>
	<g>
		<path class="st1" d="M441.07,685.51c-0.16,1.54-0.01,2.52-0.82,3.44c-0.85,0.97-1.65,0.79-3.66,1.09"/>
		<path class="st1" d="M441.06,685.51c0.16,1.54,0.01,2.52,0.82,3.44c0.85,0.97,1.65,0.79,3.66,1.09"/>
	</g>
	<g>
		<path class="st1" d="M441.07,694.6c-0.16-1.54-0.01-2.52-0.82-3.44c-0.85-0.97-1.65-0.79-3.66-1.09"/>
		<path class="st1" d="M441.06,694.6c0.16-1.54,0.01-2.52,0.82-3.44c0.85-0.97,1.65-0.79,3.66-1.09"/>
	</g>
</g>
<path class="st1" d="M376.89,312.19C384,312,389,306,394,301s8-11,9.34-18.43"/>
<path class="st1" d="M416.15,289.56c0,0-5.6-2.12-17.22,12.54c-11.62,14.66-7.73,20.7-7.73,20.7"/>
<path class="st5" d="M437.73,287.22c-0.16-0.23-0.34-0.46-0.52-0.68c-0.09-0.05-0.18-0.08-0.27-0.14c-0.96-0.4-1.76-1.02-2.42-1.85
	c-0.15-0.21-0.31-0.44-0.47-0.67c-0.79-1.03-1.32-2.19-1.56-3.49c-0.03-0.71-0.06-1.43-0.09-2.14c0.03-0.55,0.15-1.07,0.31-1.59
	c-0.06-0.12-0.11-0.24-0.17-0.36c-3.66-0.83-6.23-4.98-5.89-8.55c0.03-0.31,0.08-0.6,0.14-0.89c-0.04-0.04-0.07-0.1-0.1-0.14
	c-0.54-0.31-1.1-0.61-1.67-0.9c-1.26,0.58-2.69,0.89-4.16,0.89c-2.91,0-5.32-2.13-6.49-4.73c-1.34-0.29-2.65-0.52-3.92-0.66
	c-1.36,3.06-4.61,4.77-8.09,4.77c-0.43,0-0.84-0.06-1.24-0.14c-0.22,0.23-0.44,0.45-0.7,0.65l-0.12,0.12
	c-0.79,0.79-1.81,1.27-2.9,1.55c-0.04,0.09-0.09,0.18-0.15,0.26c0.27,0.87,0.39,1.76,0.36,2.63c1.79,1.75,2.83,4.36,2.61,6.71
	c-0.04,0.47-0.13,0.91-0.25,1.34c0,0.01,0.01,0.02,0.01,0.04c0.02,0.05,0.04,0.1,0.07,0.16c0.82,0.82,1.74,1.63,2.72,2.41
	c0.01,0,0.02-0.01,0.03-0.01c1.08,0.01,2.05,0.09,2.97,0.34c0.98-0.18,2,0,2.87,0.53c0.53,0.33,0.84,0.76,1.11,1.23
	c0.96-0.18,2.01,0.07,2.62,0.87c0.61,0.8,0.91,2.11,0.32,2.98c1.68,0.73,3.36,1.33,5.01,1.83c0.3-0.28,0.75-0.42,1.15-0.22
	c0.11,0.05,0.21,0.12,0.29,0.2c0.8-0.2,1.63-0.3,2.48-0.3c1.73,0,3.28,0.76,4.5,1.91c1.39,0.09,2.72,0.09,3.97-0.02
	c1.59-1.58,3.87-2.45,6.27-2.51c0.37-0.52,0.82-0.97,1.31-1.38C437.7,287.27,437.71,287.25,437.73,287.22
	C437.73,287.23,437.73,287.22,437.73,287.22z"/>
<g>
	<g>
		<path class="st9" d="M420.01,325.75l0.35,0.39l-3.52,3.08c-0.66,0.55-1.3,1.13-1.97,1.68l0.03,0.04c0.91-0.27,1.83-0.54,2.72-0.83
			l4.95-1.47l0.35,0.39l-3.4,3.21c-0.61,0.6-1.25,1.19-1.88,1.77l0.03,0.04c0.88-0.31,1.76-0.62,2.65-0.91l4.78-1.65l0.35,0.4
			l-8.15,2.73l-0.43-0.49l3.96-3.73c0.47-0.42,0.91-0.82,1.39-1.25l-0.03-0.04c-0.64,0.25-1.26,0.42-1.93,0.64l-5.73,1.73
			l-0.43-0.49L420.01,325.75z"/>
		<path class="st9" d="M427.09,332.87l0.31,0.38l-2.89,1.51l-0.57,0.25l0.03,0.04c0.95,0.18,1.7,0.4,2.14,0.95
			c0.62,0.77,0.42,1.43-0.23,1.95c-0.22,0.18-0.36,0.26-0.67,0.41l-3.36,1.76l-0.31-0.38l3.31-1.72c0.31-0.16,0.46-0.25,0.64-0.39
			c0.55-0.44,0.64-0.9,0.19-1.46c-0.32-0.4-1.03-0.69-2.23-0.83l-3.84,2.01l-0.31-0.38L427.09,332.87z"/>
		<path class="st9" d="M420.17,341.96l0.43-0.09c0.03,0.16,0.08,0.27,0.17,0.39c0.41,0.55,1.28,0.65,2.34,0.45l0.55-0.1l4.1-4.29
			l0.3,0.39l-2.55,2.62c-0.38,0.4-0.84,0.85-1.22,1.23l0.03,0.04c0.61-0.1,1.27-0.21,1.91-0.31l4.06-0.62l0.31,0.41l-7.31,1.04
			c-1.06,0.17-2.23,0.22-2.86-0.63C420.32,342.39,420.22,342.19,420.17,341.96z"/>
		<path class="st9" d="M435.68,345.69l0.31,0.46l-6,5.25l-0.29-0.44l3.58-3.07c0.67-0.56,1.35-1.15,2.08-1.75l-0.03-0.04
			c-1.06,0.16-2,0.24-3.03,0.35l-5.3,0.54l-0.32-0.48L435.68,345.69z M430.41,346.35l1.9,2.8l-0.41,0.16l-1.91-2.82L430.41,346.35z"
			/>
		<path class="st9" d="M430.27,352.77l-1.98,0.77l-0.26-0.42l7.99-3.01l0.22,0.35l-0.76,0.33l0.02,0.04
			c0.75,0.26,1.52,0.62,1.94,1.29c0.54,0.86,0.26,1.82-0.87,2.52c-1.88,1.17-4.18,0.8-5.02-0.55c-0.36-0.57-0.3-1.22-0.01-1.78
			l-0.01-0.02L430.27,352.77z M434.96,351.03l-2.96,1.11c-0.39,0.74-0.38,1.27-0.09,1.73c0.72,1.16,2.84,1.31,4.31,0.4
			c0.98-0.61,1.21-1.34,0.79-2.01C436.67,351.72,435.85,351.25,434.96,351.03z"/>
		<path class="st9" d="M433.52,358.04l-2.01,0.69l-0.24-0.43l8.1-2.69l0.21,0.36l-0.77,0.3l0.02,0.04c0.74,0.29,1.5,0.68,1.89,1.36
			c0.5,0.88,0.19,1.82-0.97,2.49c-1.92,1.1-4.21,0.63-5-0.75c-0.33-0.58-0.25-1.23,0.06-1.78l-0.01-0.02L433.52,358.04z
			 M438.28,356.49l-3,0.99c-0.42,0.72-0.43,1.26-0.16,1.73c0.68,1.19,2.78,1.43,4.29,0.57c1-0.57,1.26-1.29,0.87-1.97
			C439.96,357.25,439.15,356.74,438.28,356.49z"/>
		<path class="st9" d="M437.2,362.77c0.08-0.04,0.21-0.08,0.34-0.12l7.71-2.32l0.23,0.44l-7.73,2.34c-0.12,0.04-0.18,0.07-0.22,0.09
			c-0.1,0.05-0.13,0.13-0.08,0.24c0.02,0.04,0.04,0.07,0.13,0.15l-0.34,0.22c-0.11-0.09-0.18-0.16-0.26-0.32
			C436.84,363.21,436.9,362.94,437.2,362.77z"/>
		<path class="st9" d="M444.76,365.36c0.56,1.12,0,1.93-1.06,2.46c-0.36,0.18-0.73,0.27-0.97,0.3l-1.79-3.6
			c-1.76,0.53-2.05,1.66-1.54,2.69c0.23,0.46,0.69,0.8,1.14,1.04l-0.22,0.35c-0.5-0.26-1.04-0.68-1.33-1.27
			c-0.6-1.19-0.23-2.34,1.15-3.02C442.09,363.34,444.1,364.03,444.76,365.36z M442.92,367.62c0.22-0.06,0.42-0.13,0.65-0.24
			c0.69-0.35,1.23-0.99,0.79-1.87c-0.45-0.91-1.72-1.39-3.03-1.09L442.92,367.62z"/>
		<path class="st9" d="M449.41,370.56l1.67,3.82l-0.44,0.09l-1.47-3.35l-3.19,0.71l1.24,2.83l-0.44,0.09l-1.23-2.81l-3.81,0.83
			l-0.21-0.47L449.41,370.56z"/>
		<path class="st9" d="M445.5,376.56c2.06-0.81,4.26-0.03,4.84,1.45c0.25,0.63,0.09,1.24-0.33,1.73l0.02,0.04l0.82-0.09l0.15,0.38
			l-5.78,1.04l-0.15-0.39l0.9-0.22l-0.02-0.04c-0.79-0.32-1.48-0.85-1.77-1.58C443.82,377.94,444.25,377.06,445.5,376.56z
			 M446.58,380.37l2.91-0.5c0.54-0.67,0.64-1.21,0.44-1.71c-0.5-1.27-2.56-1.8-4.17-1.17c-1.08,0.43-1.43,1.1-1.14,1.83
			C444.91,379.52,445.59,380.03,446.58,380.37z"/>
		<path class="st9" d="M446.34,383.03c0.08-0.03,0.22-0.05,0.36-0.07l7.95-1.21l0.17,0.46l-7.98,1.22
			c-0.12,0.02-0.19,0.04-0.23,0.06c-0.1,0.04-0.15,0.11-0.11,0.23c0.02,0.05,0.03,0.07,0.11,0.17l-0.36,0.17
			c-0.09-0.1-0.15-0.19-0.21-0.35C445.92,383.41,446.02,383.15,446.34,383.03z"/>
		<path class="st9" d="M447.27,385.64c0.08-0.03,0.22-0.05,0.36-0.07l7.98-1.07l0.16,0.47l-8.01,1.08
			c-0.12,0.02-0.19,0.04-0.23,0.05c-0.1,0.04-0.15,0.11-0.12,0.22c0.02,0.05,0.03,0.07,0.11,0.17l-0.37,0.16
			c-0.09-0.11-0.15-0.19-0.21-0.35C446.85,386,446.95,385.75,447.27,385.64z"/>
		<path class="st9" d="M448.5,387.5l0.36,0.25c-0.38,0.46-0.6,1.14-0.38,1.83c0.24,0.76,0.97,1.24,1.59,1.04
			c0.44-0.14,0.67-0.42,0.86-1.42c0.22-1.15,0.48-1.63,1.05-1.81c0.93-0.29,1.81,0.31,2.1,1.24c0.2,0.62,0.09,1.22-0.19,1.72
			l-0.4-0.21c0.22-0.4,0.35-0.86,0.18-1.41c-0.22-0.7-0.89-1.1-1.47-0.92c-0.53,0.17-0.66,0.74-0.78,1.37
			c-0.27,1.39-0.63,1.71-1.13,1.86c-1,0.32-1.89-0.31-2.24-1.4C447.81,388.87,448.09,387.98,448.5,387.5z"/>
		<path class="st9" d="M456.95,397.97l2.56-0.15l0.12,0.48l-8.8,0.51l-0.11-0.4l0.92-0.11l-0.01-0.04
			c-0.75-0.42-1.37-1.02-1.57-1.79c-0.26-0.98,0.28-1.81,1.58-2.15c2.14-0.56,4.23,0.48,4.64,2.02c0.17,0.66-0.06,1.23-0.53,1.67
			l0.01,0.04L456.95,397.97z M452.27,398.23l2.95-0.15c0.61-0.6,0.78-1.12,0.64-1.64c-0.35-1.32-2.32-2.1-4-1.66
			c-1.13,0.3-1.55,0.92-1.35,1.69C450.71,397.18,451.33,397.78,452.27,398.23z"/>
		<path class="st9" d="M453.44,400.4c2.1-0.47,4,0.62,4.34,2.15c0.26,1.15-0.39,2.08-1.81,2.39c-2.1,0.47-4-0.62-4.34-2.15
			C451.38,401.64,452.03,400.71,453.44,400.4z M455.8,404.47c1.22-0.27,1.75-0.94,1.54-1.87c-0.27-1.21-2-2.12-3.73-1.74
			c-1.22,0.27-1.75,0.94-1.54,1.87C452.33,403.94,454.07,404.86,455.8,404.47z"/>
		<path class="st9" d="M458.37,405.98l0.08,0.48l-3.66,0.94c-0.52,0.13-1.02,0.26-1.52,0.38l0.01,0.05
			c0.55,0.15,1.09,0.27,1.66,0.42l4.01,1.06l0.1,0.59l-3.67,0.91c-0.52,0.11-1.02,0.24-1.53,0.35l0.01,0.05
			c0.55,0.15,1.09,0.27,1.66,0.43l4.01,1.09l0.08,0.47l-6.14-1.68l-0.12-0.67l3.5-0.85c0.54-0.13,1.14-0.24,1.67-0.37l-0.01-0.05
			c-0.57-0.14-1.22-0.29-1.81-0.45l-3.82-1l-0.12-0.66L458.37,405.98z"/>
		<path class="st9" d="M459.84,415.02l0.05,0.41l-0.93-0.01l0.01,0.05c0.69,0.62,1.23,1.21,1.32,1.9c0.12,0.98-0.39,1.43-1.22,1.54
			c-0.28,0.04-0.45,0.03-0.78,0l-3.78-0.27l-0.06-0.49l3.72,0.27c0.35,0.03,0.52,0.03,0.75,0c0.7-0.09,1.02-0.43,0.93-1.15
			c-0.06-0.5-0.51-1.13-1.46-1.88l-4.32-0.3l-0.06-0.49L459.84,415.02z"/>
		<path class="st9" d="M455.07,421.25c0.3-0.03,0.65,0.21,0.68,0.52c0.02,0.25-0.16,0.39-0.41,0.42c-0.3,0.03-0.63-0.19-0.66-0.5
			C454.66,421.43,454.84,421.27,455.07,421.25z M461.57,423.73c0.77-0.07,1.18-0.55,1.11-1.28c-0.05-0.54-0.39-1.05-0.84-1.39
			l0.3-0.32c0.48,0.36,0.92,1,0.99,1.71c0.09,1-0.43,1.66-1.41,1.75c-1.97,0.19-2.75-2.2-4.68-2.13l-0.01-0.45
			C459.11,421.52,459.9,423.89,461.57,423.73z"/>
		<path class="st9" d="M452.13,497.65l-1.55,3.87l-0.37-0.25l1.36-3.39l-2.61-1.7l-1.15,2.87l-0.38-0.25l1.14-2.85l-3.01-1.98
			l-1.4,3.5l-0.38-0.25l1.58-3.96L452.13,497.65z"/>
		<path class="st9" d="M442.6,498.74l-1.75-1.21l0.2-0.45l6.97,4.93l-0.17,0.38l-0.7-0.45l-0.02,0.04c0.21,0.77,0.34,1.6,0.02,2.33
			c-0.41,0.93-1.36,1.24-2.58,0.69c-2.03-0.9-3.01-3.02-2.36-4.47c0.27-0.61,0.84-0.93,1.46-1.01l0.01-0.02L442.6,498.74z
			 M446.68,501.64l-2.58-1.83c-0.83,0.09-1.27,0.4-1.49,0.9c-0.55,1.25,0.5,3.09,2.09,3.79c1.05,0.47,1.78,0.25,2.1-0.47
			C447.06,503.45,446.99,502.5,446.68,501.64z"/>
		<path class="st9" d="M440.05,504.39l-1.7-1.28l0.22-0.44l6.76,5.21l-0.18,0.37l-0.68-0.47l-0.02,0.04
			c0.18,0.77,0.28,1.62-0.07,2.33c-0.45,0.91-1.41,1.18-2.61,0.59c-1.99-0.98-2.88-3.13-2.18-4.56c0.3-0.6,0.88-0.89,1.5-0.95
			l0.01-0.02L440.05,504.39z M444,507.46l-2.5-1.93c-0.83,0.06-1.28,0.35-1.52,0.83c-0.6,1.22,0.38,3.11,1.93,3.87
			c1.03,0.51,1.77,0.32,2.12-0.39C444.31,509.28,444.28,508.33,444,507.46z"/>
		<path class="st9" d="M435.99,513.4l0.2-0.36l0.76,0.56l0.02-0.04c-0.2-0.9-0.31-1.7,0.02-2.32c0.47-0.87,1.16-0.93,1.89-0.54
			c0.25,0.14,0.38,0.24,0.64,0.46l2.91,2.43l-0.24,0.43l-2.86-2.39c-0.27-0.23-0.41-0.33-0.61-0.44c-0.62-0.34-1.08-0.25-1.42,0.39
			c-0.24,0.45-0.24,1.21,0.09,2.37l3.33,2.78l-0.24,0.43L435.99,513.4z"/>
		<path class="st9" d="M439.35,519.12l-0.21,0.36l-0.85-0.7l-0.02,0.04c0.35,0.76,0.53,1.54,0.16,2.18
			c-0.08,0.14-0.19,0.28-0.35,0.4l-0.31-0.4c0.1-0.06,0.2-0.16,0.31-0.34c0.31-0.53,0.17-1.46-0.46-2.43l-2.91-2.58l0.25-0.43
			L439.35,519.12z"/>
		<path class="st9" d="M433.06,520.76l0.02,0.48c-0.9,0.01-1.64,0.37-2.18,1.2c-0.62,0.95-0.49,2.08,0.43,2.68
			c0.57,0.37,1.17,0.28,1.8-0.05l1.06-0.53c0.68-0.34,1.47-0.53,2.18-0.06c0.92,0.59,1.21,1.89,0.48,3.02
			c-0.52,0.8-1.33,1.18-2.06,1.22l-0.06-0.47c0.65-0.06,1.34-0.36,1.79-1.05c0.56-0.86,0.25-1.84-0.38-2.25
			c-0.61-0.39-1.21-0.2-1.78,0.09l-1.03,0.52c-0.77,0.39-1.49,0.5-2.22,0.03c-1.17-0.76-1.35-2.2-0.55-3.44
			C431.17,521.22,432.03,520.76,433.06,520.76z"/>
		<path class="st9" d="M432.79,529.47l-0.28,0.41l-4.1-4.22l0.28-0.41L432.79,529.47z M434.18,530.61c0.26,0.18,0.31,0.51,0.16,0.72
			c-0.13,0.18-0.36,0.24-0.57,0.1c-0.25-0.17-0.29-0.5-0.14-0.71C433.75,530.54,433.99,530.48,434.18,530.61z"/>
		<path class="st9" d="M431.34,535.23l-0.45,0.59l-4.16-2.19l-1.58-0.82l-0.03,0.04l0.85,1.78l2.15,4.84l-0.45,0.59l-5.35-6.04
			l0.3-0.4l3.53,3.99c0.44,0.52,0.99,1.17,1.4,1.68l0.03-0.04l-0.8-1.79l-2.22-4.95l0.26-0.35l4.29,2.21l1.54,0.81l0.03-0.04
			c-0.46-0.49-1.03-1.07-1.49-1.57l-3.54-3.99l0.3-0.4L431.34,535.23z"/>
		<path class="st9" d="M422.65,537.05c1.66,1.38,1.96,3.54,0.96,4.75c-0.75,0.91-1.89,0.96-3,0.04c-1.66-1.38-1.96-3.54-0.96-4.75
			C420.41,536.18,421.54,536.13,422.65,537.05z M420.87,541.41c0.96,0.8,1.82,0.81,2.43,0.08c0.79-0.95,0.45-2.88-0.92-4.01
			c-0.96-0.8-1.82-0.81-2.43-0.08C419.17,538.35,419.51,540.28,420.87,541.41z"/>
		<path class="st9" d="M414.51,543.24l0.28-0.31l0.61,0.72l0.03-0.04c0.01-0.93,0.09-1.73,0.56-2.25c0.66-0.73,1.34-0.64,1.96-0.08
			c0.21,0.19,0.32,0.32,0.51,0.59l2.27,3.04l-0.33,0.37l-2.22-2.99c-0.21-0.28-0.32-0.42-0.49-0.57c-0.52-0.47-0.99-0.49-1.48,0.05
			c-0.34,0.38-0.52,1.12-0.46,2.33l2.59,3.47l-0.33,0.37L414.51,543.24z"/>
		<path class="st9" d="M417.09,548.93l-0.34,0.36l-3.01-2.13c-0.46-0.32-0.94-0.69-1.39-1l-0.03,0.03c0.2,0.59,0.41,1.21,0.6,1.82
			l1.27,3.94l-0.36,0.37l-1.96-6.27l0.44-0.45L417.09,548.93z"/>
		<path class="st9" d="M411.6,554.67c-0.9,0.87-1.84,0.59-2.67-0.26c-0.28-0.29-0.48-0.62-0.58-0.84l2.88-2.8
			c-1.04-1.51-2.21-1.45-3.03-0.65c-0.37,0.35-0.56,0.9-0.64,1.4l-0.41-0.1c0.09-0.56,0.34-1.2,0.81-1.66
			c0.96-0.93,2.15-0.93,3.23,0.17C412.71,551.52,412.66,553.64,411.6,554.67z M408.88,553.61c0.12,0.19,0.25,0.36,0.43,0.54
			c0.54,0.56,1.32,0.87,2.02,0.19c0.73-0.71,0.8-2.06,0.11-3.22L408.88,553.61z"/>
		<path class="st9" d="M193.5,557.8c-1.6,1.77-4.51,2.77-6.47,1c-0.67-0.61-0.76-1.39-0.63-2.08l0.47,0.06
			c-0.13,0.61-0.05,1.24,0.48,1.72c1.69,1.53,4.36,0.51,5.71-0.98c1.02-1.12,1.37-2.47,0.12-3.61c-0.53-0.48-1.11-0.65-1.61-0.64
			l-2.07,1.54l1.35,1.22l-0.36,0.26l-1.72-1.55l2.65-1.94c0.73,0.02,1.46,0.25,2.1,0.83C194.91,554.87,194.73,556.44,193.5,557.8z"
			/>
		<path class="st9" d="M189.09,552.64c-1.51,1.54-3.69,1.66-4.81,0.56c-0.84-0.83-0.8-1.96,0.21-2.99c1.51-1.54,3.69-1.66,4.81-0.56
			C190.14,550.48,190.1,551.61,189.09,552.64z M184.89,550.51c-0.87,0.89-0.95,1.74-0.27,2.41c0.88,0.87,2.83,0.68,4.07-0.58
			c0.87-0.89,0.95-1.74,0.27-2.41C188.08,549.06,186.13,549.25,184.89,550.51z"/>
		<path class="st9" d="M178.53,547.58l-2.17,1.35l-0.34-0.36l7.48-4.66l0.29,0.3l-0.76,0.54l0.03,0.03
			c0.86,0.01,1.69,0.24,2.23,0.82c0.7,0.74,0.62,1.72-0.36,2.65c-1.61,1.52-3.94,1.61-5.04,0.45c-0.46-0.49-0.54-1.11-0.34-1.71
			l-0.03-0.03L178.53,547.58z M182.5,545.11l-2.52,1.55c-0.25,0.82-0.15,1.36,0.22,1.75c0.94,0.99,3.04,0.73,4.3-0.46
			c0.85-0.8,0.92-1.55,0.38-2.12C184.38,545.28,183.55,545.05,182.5,545.11z"/>
		<path class="st9" d="M173.56,544.64l-0.84-1c-1.41-1.67-1.17-3.28,0.24-4.48c2.09-1.76,4.65-1.98,6.42,0.12l1.24,1.47
			L173.56,544.64z M179.04,539.55c-1.52-1.8-3.9-1.55-5.72-0.01c-1.22,1.03-1.46,2.42-0.25,3.84l0.55,0.66l6.29-3.46L179.04,539.55z
			"/>
		<path class="st9" d="M174.51,536.77c-1.7,1.32-3.88,1.15-4.84-0.09c-0.72-0.93-0.53-2.05,0.61-2.93c1.7-1.32,3.88-1.15,4.84,0.09
			C175.84,534.77,175.65,535.89,174.51,536.77z M170.63,534.1c-0.99,0.76-1.18,1.6-0.6,2.35c0.76,0.98,2.72,1.06,4.11-0.03
			c0.99-0.76,1.18-1.6,0.6-2.35C173.99,533.1,172.03,533.01,170.63,534.1z"/>
		<path class="st9" d="M166.02,531.77c-0.73-1.01-0.31-1.91,0.65-2.6c0.33-0.24,0.68-0.38,0.91-0.46l2.35,3.26
			c1.65-0.8,1.75-1.97,1.08-2.9c-0.3-0.41-0.81-0.68-1.29-0.84l0.16-0.39c0.54,0.18,1.13,0.51,1.52,1.04
			c0.78,1.08,0.6,2.27-0.65,3.17C168.98,533.33,166.89,532.97,166.02,531.77z M167.47,529.24c-0.21,0.09-0.39,0.2-0.6,0.34
			c-0.63,0.45-1.05,1.18-0.48,1.97c0.59,0.83,1.92,1.1,3.16,0.58L167.47,529.24z"/>
		<path class="st9" d="M168.84,527.14l-0.41-0.14c0.24-0.55,0.25-1.26-0.15-1.86c-0.44-0.66-1.28-0.91-1.82-0.55
			c-0.38,0.26-0.52,0.59-0.42,1.6c0.12,1.16-0.01,1.7-0.5,2.04c-0.81,0.54-1.82,0.21-2.36-0.6c-0.36-0.54-0.43-1.14-0.3-1.71
			l0.44,0.09c-0.1,0.44-0.1,0.92,0.23,1.4c0.41,0.61,1.16,0.8,1.67,0.47c0.46-0.31,0.42-0.89,0.36-1.53
			c-0.13-1.41,0.13-1.82,0.56-2.11c0.87-0.58,1.9-0.24,2.54,0.71C169.11,525.63,169.1,526.57,168.84,527.14z"/>
		<path class="st9" d="M157.99,523.26l-0.28-0.47l3.75-4.68l1.09-1.3l-0.02-0.04c-0.71,0.29-1.46,0.61-2.19,0.87l-4.7,1.67
			l-0.26-0.43l7.6-2.71l0.27,0.46l-3.74,4.66l-1.13,1.35l0.02,0.04c0.73-0.3,1.47-0.58,2.18-0.84l4.76-1.71l0.26,0.43L157.99,523.26
			z"/>
		<path class="st9" d="M160.02,515.34c-1.89,1.03-4.01,0.5-4.76-0.87c-0.56-1.04-0.19-2.11,1.08-2.8c1.89-1.03,4.01-0.5,4.76,0.87
			C161.66,513.58,161.29,514.65,160.02,515.34z M156.63,512.07c-1.1,0.59-1.42,1.39-0.97,2.22c0.59,1.09,2.51,1.48,4.06,0.64
			c1.1-0.6,1.42-1.39,0.97-2.22C160.1,511.63,158.18,511.23,156.63,512.07z"/>
		<path class="st9" d="M158.03,509.2c-0.2,0.1-0.35,0.15-0.54,0.21l-3.71,1l0.4,0.8l-0.37,0.11l-0.46-0.81l-1.65,0.38l-0.19-0.38
			l1.62-0.44l-0.7-1.39l0.43-0.11l0.7,1.39l3.73-1.01c0.14-0.04,0.28-0.09,0.42-0.16c0.48-0.24,0.64-0.54,0.36-1.09
			c-0.12-0.24-0.33-0.4-0.5-0.52l0.27-0.29c0.21,0.15,0.49,0.38,0.65,0.71C158.91,508.4,158.58,508.92,158.03,509.2z"/>
		<path class="st9" d="M148.68,505.75l-0.85-1.89c-0.59-1.33-0.46-2.37,0.71-2.9c1.63-0.73,2.95,0.12,3.79,1.97l0.6,1.33l3.41-0.79
			l0.21,0.47L148.68,505.75z M151.95,503.16c-0.77-1.73-1.85-2.33-3.15-1.74c-0.94,0.42-1.03,1.24-0.48,2.47l0.59,1.31l3.59-0.83
			L151.95,503.16z"/>
		<path class="st9" d="M153.61,498.23c-0.08,0.03-0.21,0.06-0.35,0.09l-7.9,1.57l-0.19-0.46l7.93-1.57
			c0.12-0.02,0.18-0.05,0.23-0.07c0.1-0.04,0.15-0.12,0.1-0.23c-0.02-0.05-0.03-0.07-0.12-0.16l0.36-0.19
			c0.1,0.1,0.16,0.18,0.23,0.34C154.01,497.84,153.93,498.1,153.61,498.23z"/>
		<path class="st9" d="M151.11,496.29c-2.07,0.79-4.26-0.02-4.83-1.51c-0.24-0.63-0.07-1.24,0.35-1.72l-0.02-0.04l-0.82,0.08
			l-0.15-0.39l5.8-0.97l0.15,0.39l-0.9,0.21l0.02,0.04c0.79,0.33,1.47,0.87,1.75,1.61C152.82,494.92,152.37,495.81,151.11,496.29z
			 M150.08,492.46l-2.92,0.47c-0.54,0.66-0.66,1.2-0.46,1.7c0.49,1.28,2.53,1.84,4.15,1.22c1.09-0.41,1.44-1.08,1.16-1.82
			C151.74,493.34,151.06,492.81,150.08,492.46z"/>
		<path class="st9" d="M153.56,490.35l-0.44-0.05c0.02-0.16,0.01-0.28-0.04-0.42c-0.22-0.65-1.01-1.01-2.08-1.15l-0.55-0.08
			l-5.23,2.8l-0.16-0.47l3.24-1.7c0.49-0.26,1.06-0.55,1.55-0.78l-0.02-0.04c-0.61-0.09-1.27-0.19-1.91-0.3l-4.05-0.68l-0.16-0.48
			l7.28,1.28c1.06,0.17,2.19,0.49,2.52,1.49C153.55,489.9,153.59,490.12,153.56,490.35z"/>
		<path class="st9" d="M140.45,483.63l-0.36-1.26c-0.59-2.1,0.29-3.48,2.07-3.98c2.63-0.75,5.06,0.11,5.81,2.76l0.52,1.85
			L140.45,483.63z M147.55,481.25c-0.64-2.27-2.91-3.02-5.21-2.37c-1.53,0.43-2.32,1.6-1.82,3.4l0.23,0.83l7.16-0.56L147.55,481.25z
			"/>
		<path class="st9" d="M139.03,476.95c-0.31,0.08-0.58-0.11-0.65-0.36c-0.05-0.22,0.06-0.43,0.3-0.49c0.29-0.07,0.56,0.11,0.63,0.36
			C139.36,476.68,139.25,476.89,139.03,476.95z M140.8,476.67l-0.12-0.48l5.87-0.28l0.12,0.48L140.8,476.67z"/>
		<path class="st9" d="M143.95,474.31c-2.18,0.49-4.02-0.7-4.36-2.2c-0.14-0.64,0.03-1.12,0.36-1.58l0.39,0.24
			c-0.32,0.43-0.44,0.76-0.32,1.27c0.28,1.26,2.03,2.18,3.75,1.79c1.22-0.27,1.75-0.93,1.52-1.98c-0.13-0.56-0.5-0.99-0.91-1.32
			l0.29-0.32c0.4,0.33,0.88,0.82,1.05,1.61C146,473.03,145.36,473.99,143.95,474.31z"/>
		<path class="st9" d="M138.57,467.05c-0.23-1.23,0.52-1.86,1.69-2.08c0.4-0.08,0.78-0.06,1.02-0.03l0.75,3.95
			c1.83-0.03,2.42-1.04,2.21-2.17c-0.09-0.5-0.44-0.96-0.81-1.31l0.31-0.28c0.42,0.39,0.81,0.94,0.94,1.59
			c0.25,1.31-0.41,2.31-1.93,2.6C140.59,469.72,138.85,468.5,138.57,467.05z M140.96,465.37c-0.23,0-0.44,0.01-0.69,0.06
			c-0.76,0.14-1.45,0.62-1.27,1.58c0.19,1,1.28,1.81,2.62,1.87L140.96,465.37z"/>
		<path class="st9" d="M143.69,463.67c-0.3,0.05-0.67-0.16-0.72-0.48c-0.04-0.25,0.13-0.4,0.38-0.44c0.3-0.05,0.64,0.15,0.69,0.46
			C144.08,463.46,143.92,463.63,143.69,463.67z"/>
		<path class="st9" d="M137.01,405.07l0.11-0.51l4.56,1.03c0.83,0.21,1.68,0.38,2.51,0.6l0.01-0.05c-0.75-0.57-1.51-1.15-2.27-1.7
			l-4.1-3.12l0.11-0.51l4.6,0.85c0.85,0.14,1.69,0.31,2.54,0.48l0.01-0.05c-0.77-0.53-1.53-1.06-2.29-1.6l-4.15-2.88l0.11-0.52
			l7,4.97l-0.14,0.64l-5.34-1c-0.62-0.13-1.2-0.25-1.82-0.39l-0.01,0.05c0.58,0.37,1.08,0.77,1.65,1.18l4.77,3.61l-0.14,0.63
			L137.01,405.07z"/>
		<path class="st9" d="M141.55,394.59c0.32-1.21,1.28-1.45,2.42-1.15c0.39,0.1,0.73,0.29,0.93,0.42l-1.04,3.88
			c1.67,0.77,2.64,0.11,2.93-1c0.13-0.49,0.02-1.06-0.17-1.54l0.4-0.12c0.21,0.53,0.33,1.2,0.15,1.84
			c-0.34,1.29-1.37,1.91-2.86,1.51C142.21,397.87,141.17,396.02,141.55,394.59z M144.43,394.11c-0.21-0.1-0.4-0.18-0.65-0.24
			c-0.75-0.2-1.58-0.07-1.83,0.88c-0.26,0.98,0.37,2.19,1.55,2.82L144.43,394.11z"/>
		<path class="st9" d="M142.05,385.94l0.17-0.53l7.83,1.49l-0.16,0.5l-4.63-0.93c-0.86-0.18-1.74-0.35-2.67-0.56l-0.01,0.05
			c0.77,0.74,1.42,1.43,2.15,2.17l3.69,3.84l-0.18,0.55L142.05,385.94z M145.82,389.69l1.04-3.23l0.37,0.22l-1.04,3.25
			L145.82,389.69z"/>
		<path class="st9" d="M150.05,385.8c-0.08-0.03-0.2-0.1-0.32-0.17l-6.92-4.12l0.17-0.47l6.95,4.13c0.11,0.06,0.17,0.09,0.22,0.1
			c0.1,0.04,0.19,0.01,0.23-0.1c0.02-0.05,0.03-0.07,0.02-0.2l0.39,0.1c0,0.14,0,0.24-0.06,0.4
			C150.61,385.78,150.37,385.92,150.05,385.8z"/>
		<path class="st9" d="M150.98,383.2c-0.08-0.03-0.2-0.1-0.32-0.18l-6.85-4.24l0.17-0.46l6.87,4.25c0.1,0.06,0.17,0.09,0.22,0.11
			c0.1,0.04,0.19,0.01,0.23-0.1c0.02-0.05,0.03-0.07,0.03-0.2l0.39,0.11c0,0.14-0.01,0.24-0.07,0.4
			C151.54,383.18,151.3,383.32,150.98,383.2z"/>
		<path class="st9" d="M150.25,377.32c-2.01-0.86-3.96-3.22-3.04-5.38c0.68-1.6,2.26-1.85,4.04-1.09c2.01,0.86,3.96,3.22,3.04,5.38
			C153.61,377.82,152.03,378.08,150.25,377.32z M151.1,371.35c-1.57-0.67-2.91-0.56-3.49,0.79c-0.8,1.87,1.08,3.94,2.79,4.67
			c1.57,0.67,2.91,0.56,3.49-0.79C154.7,374.15,152.82,372.08,151.1,371.35z"/>
		<path class="st9" d="M151.23,368.58l0.18-0.38l0.91,0.62l0.02-0.04c-0.41-0.72-0.66-1.49-0.35-2.16c0.07-0.15,0.17-0.29,0.31-0.43
			l0.34,0.37c-0.09,0.07-0.19,0.17-0.28,0.37c-0.26,0.55-0.04,1.47,0.68,2.38l3.13,2.3l-0.21,0.45L151.23,368.58z"/>
		<path class="st9" d="M151.39,364.14c-0.28-0.14-0.38-0.46-0.26-0.69c0.1-0.2,0.32-0.29,0.55-0.18c0.27,0.13,0.36,0.45,0.24,0.68
			C151.82,364.16,151.6,364.25,151.39,364.14z M152.92,365.08l0.22-0.44l4.65,3.59l-0.22,0.44L152.92,365.08z"/>
		<path class="st9" d="M160.25,367.66l-0.19-0.41c0.56-0.2,1.11-0.55,1.44-1.16c0.53-1,0.11-1.94-0.85-2.73l-1.06-0.89
			c0.26,0.88,0.3,1.68-0.07,2.39c-0.46,0.87-1.41,1.14-2.59,0.52c-1.89-1-2.71-3.17-2-4.52c0.31-0.59,0.88-0.87,1.52-0.87l0.02-0.04
			l-0.6-0.57l0.19-0.37l4.94,4.04c1.11,0.92,1.48,2.08,0.85,3.27C161.49,367.03,160.87,367.41,160.25,367.66z M159.15,362.13
			l-2.24-1.85c-0.86,0.04-1.33,0.29-1.58,0.77c-0.61,1.15,0.31,3.05,1.77,3.82c1,0.53,1.72,0.37,2.09-0.32
			C159.49,363.98,159.48,363.05,159.15,362.13z"/>
		<path class="st9" d="M155.73,356.02c-0.28-0.16-0.35-0.48-0.22-0.7c0.11-0.19,0.34-0.27,0.56-0.15c0.26,0.15,0.33,0.47,0.2,0.69
			C156.16,356.06,155.93,356.14,155.73,356.02z M157.2,357.04l0.24-0.43l4.44,3.85l-0.24,0.43L157.2,357.04z"/>
		<path class="st9" d="M158.57,354.67l0.21-0.36l0.72,0.59l0.02-0.04c-0.16-0.92-0.21-1.71,0.15-2.31c0.51-0.84,1.2-0.88,1.91-0.45
			c0.24,0.15,0.37,0.25,0.62,0.48l2.8,2.56l-0.26,0.42l-2.74-2.52c-0.26-0.24-0.39-0.35-0.59-0.47c-0.6-0.36-1.07-0.29-1.44,0.32
			c-0.26,0.44-0.3,1.2-0.02,2.38l3.2,2.92l-0.25,0.42L158.57,354.67z"/>
		<path class="st9" d="M164.44,352.39c-1.85-1.22-2.47-3.46-1.6-4.79c0.37-0.57,0.96-0.78,1.6-0.73l0.02-0.04l-0.54-0.62l0.23-0.34
			l4.18,4.13l-0.23,0.35l-0.69-0.61l-0.02,0.04c0.19,0.83,0.15,1.7-0.28,2.36C166.54,352.98,165.56,353.13,164.44,352.39z
			 M166.93,349.31l-2.09-2.09c-0.85-0.05-1.35,0.17-1.65,0.62c-0.75,1.14-0.01,3.13,1.44,4.08c0.97,0.64,1.72,0.54,2.15-0.12
			C167.2,351.18,167.23,350.32,166.93,349.31z"/>
		<path class="st9" d="M168.91,347.39c-0.18-0.13-0.29-0.24-0.44-0.37l-2.63-2.8l-0.52,0.73l-0.27-0.28l0.49-0.79l-1.12-1.27
			l0.24-0.34l1.15,1.22l0.89-1.27l0.3,0.32l-0.9,1.28l2.65,2.82c0.1,0.1,0.21,0.2,0.34,0.29c0.44,0.31,0.77,0.31,1.13-0.2
			c0.16-0.22,0.2-0.48,0.23-0.68l0.39,0.1c-0.03,0.26-0.11,0.61-0.32,0.91C170.02,347.79,169.41,347.74,168.91,347.39z"/>
		<path class="st9" d="M168.59,339.45c0.75-1,1.73-0.87,2.67-0.17c0.32,0.24,0.57,0.54,0.71,0.73l-2.41,3.22
			c1.26,1.33,2.41,1.08,3.09,0.16c0.3-0.41,0.41-0.97,0.42-1.49l0.42,0.04c-0.01,0.57-0.14,1.23-0.54,1.76
			c-0.8,1.07-1.98,1.26-3.22,0.33C167.99,342.74,167.71,340.64,168.59,339.45z M171.44,340.08c-0.15-0.17-0.31-0.32-0.51-0.47
			c-0.62-0.46-1.44-0.65-2.02,0.13c-0.61,0.82-0.47,2.17,0.39,3.2L171.44,340.08z"/>
		<path class="st9" d="M173.19,333.26l-1.63-1.97l0.31-0.38l5.62,6.78l-0.26,0.32l-0.63-0.68l-0.03,0.04
			c0.11,0.85-0.01,1.7-0.51,2.32c-0.64,0.79-1.62,0.85-2.67,0c-1.72-1.39-2.13-3.69-1.13-4.93c0.43-0.53,1.03-0.68,1.65-0.56
			l0.03-0.04L173.19,333.26z M176.17,336.87l-1.87-2.28c-0.85-0.14-1.36,0.04-1.7,0.46c-0.86,1.06-0.31,3.11,1.04,4.2
			c0.91,0.73,1.66,0.7,2.15,0.09C176.26,338.75,176.37,337.9,176.17,336.87z"/>
		<path class="st9" d="M175.43,327.94l2.78-3.11l0.27,0.37l-2.44,2.72l1.96,2.61l2.07-2.31l0.26,0.37l-2.05,2.29l2.33,3.12
			l-0.34,0.38L175.43,327.94z"/>
		<path class="st9" d="M180.51,325.59l0.29-0.3l0.67,0.88l0.03-0.03c-0.17-0.82-0.16-1.62,0.35-2.16c0.11-0.12,0.25-0.22,0.43-0.31
			l0.21,0.46c-0.11,0.04-0.23,0.11-0.38,0.26c-0.42,0.44-0.5,1.38-0.11,2.47l2.24,3.17l-0.34,0.36L180.51,325.59z"/>
		<path class="st9" d="M184.99,326.13c-1.52-1.53-1.61-3.71-0.49-4.82c0.84-0.83,1.97-0.77,2.99,0.25c1.52,1.53,1.61,3.71,0.49,4.82
			C187.13,327.21,186,327.16,184.99,326.13z M187.18,321.96c-0.88-0.89-1.73-0.98-2.41-0.31c-0.88,0.87-0.72,2.82,0.52,4.08
			c0.88,0.89,1.73,0.98,2.41,0.31C188.58,325.18,188.42,323.22,187.18,321.96z"/>
		<path class="st9" d="M187.68,318.42l0.31-0.28l0.52,0.77l0.04-0.03c0.07-0.88,0.3-1.7,0.72-2.07c0.71-0.64,1.33-0.45,1.79,0.01
			c0.08-1.11,0.34-1.92,0.76-2.3c0.72-0.64,1.39-0.48,1.95,0.14c0.19,0.21,0.28,0.35,0.45,0.64l1.93,3.26l-0.37,0.33l-1.89-3.21
			c-0.18-0.3-0.27-0.45-0.43-0.62c-0.47-0.52-0.94-0.59-1.46-0.12c-0.27,0.25-0.58,1.02-0.61,2.18l2.21,3.73l-0.37,0.33l-1.89-3.21
			c-0.18-0.3-0.27-0.45-0.43-0.62c-0.47-0.52-0.94-0.59-1.46-0.12c-0.28,0.25-0.58,1.02-0.61,2.18l2.21,3.73l-0.37,0.33
			L187.68,318.42z"/>
		<path class="st9" d="M197.56,313.27c-1.35-1.72-1.93-4.72-0.08-6.17c1.36-1.07,2.87-0.54,4.07,0.98c1.35,1.72,1.93,4.72,0.08,6.17
			C200.26,315.32,198.76,314.79,197.56,313.27z M201.17,308.44c-1.06-1.34-2.28-1.89-3.44-0.98c-1.6,1.26-0.94,3.97,0.21,5.44
			c1.06,1.34,2.28,1.89,3.44,0.98C202.97,312.62,202.32,309.91,201.17,308.44z M201.1,314.35l0.45-0.27
			c0.73,0.65,1.65,0.51,2.46-0.13c0.16-0.13,0.28-0.26,0.41-0.42l0.32,0.32c-0.14,0.18-0.28,0.33-0.47,0.48
			C203.28,315.1,202.1,315.26,201.1,314.35z"/>
		<path class="st9" d="M208.41,309.01l-0.34,0.24l-0.44-0.84l-0.04,0.03c-0.21,0.9-0.46,1.67-1.03,2.08
			c-0.8,0.57-1.45,0.34-1.94-0.34c-0.17-0.23-0.24-0.38-0.38-0.69l-1.57-3.46l0.4-0.29l1.53,3.4c0.15,0.32,0.22,0.47,0.36,0.66
			c0.41,0.57,0.87,0.69,1.45,0.27c0.41-0.3,0.75-0.99,0.95-2.18l-1.79-3.95l0.4-0.29L208.41,309.01z"/>
		<path class="st9" d="M209.05,306.19c-1.22-1.85-0.91-4.16,0.42-5.03c0.56-0.37,1.19-0.34,1.76-0.04l0.04-0.03l-0.25-0.78
			l0.34-0.23l2.21,5.44l-0.35,0.23l-0.4-0.84l-0.04,0.02c-0.15,0.84-0.53,1.62-1.19,2.05C210.75,307.55,209.79,307.31,209.05,306.19
			z M212.56,304.35l-1.09-2.74c-0.76-0.39-1.31-0.38-1.76-0.08c-1.14,0.75-1.24,2.87-0.29,4.32c0.64,0.97,1.37,1.17,2.03,0.74
			C212.07,306.16,212.43,305.39,212.56,304.35z"/>
		<path class="st9" d="M213.31,298.87l0.36-0.21l0.36,0.85l0.04-0.02c0.29-0.89,0.61-1.61,1.21-1.97c0.84-0.51,1.47-0.22,1.9,0.5
			c0.15,0.24,0.21,0.4,0.32,0.71l1.29,3.57l-0.42,0.26l-1.26-3.51c-0.12-0.33-0.18-0.49-0.3-0.69c-0.36-0.6-0.81-0.76-1.43-0.38
			c-0.44,0.26-0.82,0.93-1.13,2.1l1.47,4.08l-0.42,0.26L213.31,298.87z"/>
		<path class="st9" d="M220.35,300.23c-0.11-0.19-0.16-0.34-0.24-0.53l-1.17-3.66l-0.78,0.44l-0.12-0.37l0.78-0.5l-0.46-1.63
			l0.37-0.21l0.52,1.59l1.35-0.77l0.13,0.42l-1.36,0.77l1.19,3.68c0.05,0.14,0.1,0.27,0.18,0.41c0.26,0.46,0.56,0.61,1.11,0.3
			c0.24-0.13,0.38-0.35,0.5-0.52l0.31,0.25c-0.14,0.22-0.36,0.5-0.68,0.69C221.18,301.07,220.65,300.77,220.35,300.23z"/>
		<path class="st9" d="M227.16,297.66l-0.37,0.19l-0.32-0.89l-0.04,0.02c-0.34,0.86-0.69,1.59-1.31,1.91
			c-0.87,0.46-1.48,0.13-1.87-0.61c-0.13-0.25-0.19-0.41-0.28-0.73l-1.07-3.64l0.44-0.23l1.04,3.58c0.1,0.34,0.15,0.5,0.26,0.7
			c0.33,0.62,0.76,0.8,1.4,0.47c0.45-0.23,0.88-0.87,1.24-2.02l-1.22-4.16l0.44-0.23L227.16,297.66z"/>
		<path class="st9" d="M227.57,291l0.38-0.17l0.27,0.89l0.04-0.02c0.32-0.82,0.78-1.53,1.29-1.77c0.86-0.4,1.4-0.04,1.71,0.53
			c0.4-1.03,0.88-1.74,1.4-1.97c0.87-0.41,1.47-0.05,1.82,0.71c0.12,0.26,0.17,0.42,0.24,0.75l0.89,3.69l-0.45,0.21l-0.87-3.62
			c-0.08-0.34-0.13-0.51-0.23-0.71c-0.3-0.64-0.72-0.84-1.36-0.54c-0.33,0.16-0.85,0.8-1.22,1.9l1.01,4.21l-0.45,0.21l-0.87-3.62
			c-0.08-0.34-0.13-0.51-0.23-0.71c-0.3-0.64-0.72-0.84-1.35-0.55c-0.34,0.16-0.86,0.8-1.23,1.91l1.02,4.21l-0.45,0.21L227.57,291z"
			/>
		<path class="st9" d="M238.02,284.07l3.88-1.52l0.07,0.45l-3.4,1.33l0.58,3.22l2.88-1.13l0.07,0.45l-2.86,1.12l0.67,3.84
			l-0.48,0.19L238.02,284.07z"/>
		<path class="st9" d="M244.47,289.67c-0.03-0.08-0.05-0.22-0.07-0.36l-1.2-7.96l0.46-0.17l1.21,7.99c0.02,0.12,0.04,0.19,0.06,0.23
			c0.04,0.1,0.11,0.15,0.23,0.11c0.05-0.02,0.07-0.03,0.17-0.11l0.17,0.36c-0.1,0.09-0.19,0.15-0.35,0.21
			C244.84,290.09,244.58,289.99,244.47,289.67z"/>
		<path class="st9" d="M250.93,287.85l-0.39,0.13l-0.17-0.93l-0.05,0.01c-0.47,0.8-0.94,1.45-1.61,1.67
			c-0.93,0.31-1.48-0.11-1.74-0.91c-0.09-0.27-0.12-0.43-0.15-0.77l-0.46-3.77l0.47-0.15l0.44,3.7c0.04,0.35,0.07,0.52,0.14,0.74
			c0.22,0.67,0.62,0.92,1.3,0.69c0.48-0.16,1.01-0.72,1.56-1.79l-0.52-4.3l0.47-0.15L250.93,287.85z"/>
		<path class="st9" d="M252.33,285.17c-0.62-2.14,0.45-4.05,1.93-4.48c0.63-0.18,1.12-0.04,1.6,0.27l-0.22,0.41
			c-0.45-0.3-0.79-0.39-1.29-0.25c-1.24,0.36-2.05,2.16-1.56,3.85c0.35,1.2,1.04,1.69,2.07,1.39c0.55-0.16,0.96-0.56,1.26-0.98
			l0.34,0.27c-0.31,0.42-0.77,0.92-1.54,1.15C253.73,287.13,252.74,286.56,252.33,285.17z"/>
		<path class="st9" d="M257.92,284.77c-0.06-0.21-0.07-0.37-0.09-0.57l-0.19-3.84l-0.87,0.23l-0.03-0.39l0.89-0.28l-0.03-1.69
			l0.41-0.11l0.09,1.67l1.5-0.39l0.02,0.44l-1.51,0.39l0.2,3.86c0.01,0.15,0.03,0.29,0.07,0.45c0.13,0.52,0.39,0.73,0.99,0.58
			c0.26-0.07,0.46-0.24,0.62-0.37l0.23,0.32c-0.19,0.17-0.47,0.4-0.83,0.49C258.51,285.79,258.08,285.37,257.92,284.77z"/>
		<path class="st9" d="M265.17,284.04l-0.4,0.09l-0.08-0.95l-0.05,0.01c-0.55,0.75-1.08,1.36-1.76,1.51
			c-0.96,0.22-1.47-0.25-1.65-1.07c-0.06-0.28-0.07-0.44-0.08-0.78l-0.1-3.79l0.48-0.11l0.09,3.73c0.01,0.35,0.02,0.52,0.07,0.75
			c0.16,0.69,0.53,0.97,1.23,0.81c0.49-0.11,1.07-0.62,1.72-1.63l-0.11-4.33l0.48-0.11L265.17,284.04z"/>
		<path class="st9" d="M266.89,281.68c-0.41-2.18,0.78-4.19,2.35-4.48c0.67-0.12,1.23,0.15,1.63,0.65l0.04-0.01l0.07-0.82l0.41-0.08
			l-0.08,5.88l-0.41,0.08l-0.04-0.92l-0.04,0.01c-0.47,0.71-1.11,1.29-1.89,1.43C267.92,283.6,267.13,283.01,266.89,281.68z
			 M270.84,281.35l0.06-2.95c-0.55-0.65-1.06-0.86-1.59-0.76c-1.34,0.25-2.26,2.16-1.94,3.87c0.21,1.14,0.81,1.61,1.58,1.47
			C269.68,282.83,270.32,282.26,270.84,281.35z"/>
		<path class="st9" d="M273.58,281.44c-0.03-0.22-0.03-0.38-0.04-0.58l0.2-3.83l-0.89,0.14l0.01-0.39l0.91-0.19l0.14-1.69l0.42-0.06
			l-0.08,1.67l1.54-0.24l-0.03,0.44l-1.54,0.24l-0.19,3.86c0,0.15,0,0.29,0.02,0.45c0.08,0.53,0.31,0.77,0.93,0.68
			c0.27-0.04,0.48-0.19,0.65-0.31l0.2,0.35c-0.21,0.15-0.51,0.35-0.88,0.4C274.06,282.52,273.67,282.05,273.58,281.44z"/>
		<path class="st9" d="M277.25,276.1l0.49-0.07l-0.38,5.86l-0.49,0.07L277.25,276.1z M277.17,274.31c-0.04-0.31,0.17-0.57,0.43-0.6
			c0.22-0.03,0.42,0.11,0.45,0.36c0.04,0.3-0.17,0.55-0.43,0.58C277.4,274.67,277.2,274.54,277.17,274.31z"/>
		<path class="st9" d="M279.23,279.48c-0.23-2.14,1.06-3.9,2.63-4.07c1.17-0.12,2.02,0.63,2.18,2.06c0.23,2.14-1.06,3.9-2.63,4.07
			C280.23,281.67,279.38,280.92,279.23,279.48z M283.54,277.59c-0.13-1.24-0.74-1.85-1.69-1.74c-1.23,0.13-2.33,1.75-2.14,3.51
			c0.13,1.24,0.74,1.84,1.69,1.74C282.63,280.97,283.73,279.35,283.54,277.59z"/>
		<path class="st9" d="M286.12,275.16l0.41-0.03l-0.07,0.93l0.05,0c0.66-0.66,1.28-1.15,1.98-1.2c0.98-0.07,1.41,0.48,1.47,1.31
			c0.02,0.29,0,0.45-0.04,0.78l-0.49,3.76l-0.49,0.03l0.49-3.7c0.05-0.35,0.06-0.52,0.05-0.75c-0.05-0.7-0.37-1.04-1.09-0.99
			c-0.51,0.03-1.16,0.45-1.96,1.35l-0.56,4.3l-0.49,0.03L286.12,275.16z"/>
		<path class="st9" d="M290.85,279.7l0.34-0.28c0.34,0.49,0.94,0.88,1.66,0.86c0.79-0.03,1.45-0.61,1.43-1.26
			c-0.02-0.46-0.23-0.76-1.14-1.21c-1.05-0.52-1.44-0.9-1.46-1.5c-0.03-0.98,0.79-1.66,1.76-1.69c0.65-0.02,1.2,0.24,1.61,0.65
			l-0.31,0.33c-0.32-0.32-0.73-0.57-1.31-0.55c-0.73,0.02-1.3,0.56-1.28,1.17c0.02,0.55,0.53,0.83,1.11,1.12
			c1.27,0.64,1.48,1.07,1.49,1.59c0.04,1.05-0.8,1.74-1.95,1.78C291.98,280.73,291.2,280.23,290.85,279.7z"/>
		<path class="st9" d="M295.77,280.2c0-0.3,0.26-0.64,0.57-0.64c0.25,0,0.38,0.19,0.38,0.44c0.01,0.3-0.24,0.61-0.55,0.62
			C295.93,280.62,295.78,280.43,295.77,280.2z"/>
	</g>
</g>
<g>
	<g>
		<g>
			<path d="M408.07,336.48c0.53-0.33,1.11-0.81,1.12-1.5c0.01-0.58-0.38-1.02-0.85-1.31c-0.91-0.56-2.22-0.78-3.27-0.58
				c-0.95,0.18-0.55,1.63,0.4,1.45c0.21-0.04-0.15,0,0.08-0.01c0.08-0.01,0.16-0.01,0.25-0.01c0.15,0,0.32,0.01,0.45,0.03
				c0.33,0.04,0.71,0.13,1.04,0.26c0.07,0.03,0.23,0.11,0.33,0.17c0.01,0.01,0.12,0.08,0.11,0.09c0,0-0.02-0.07-0.03-0.1
				c-0.04-0.16,0.1-0.1-0.01-0.07c0,0-0.29,0.23-0.36,0.28C406.5,335.69,407.25,336.99,408.07,336.48L408.07,336.48z"/>
		</g>
	</g>
	<g>
		<g>
			<path d="M390.65,317.25c-0.07,1.31-0.07,1.13,0.14,2.42c0.14,0.85,1.48,0.63,1.47-0.2c0.02-0.6-0.01-1.19-0.06-1.79
				c-0.07-0.98-1.39-0.94-1.5,0c-0.53,4.41,3.32,6.52,6.23,9.07c3.62,3.18,6.05,7.29,10.8,8.95c-0.11-0.42-0.22-0.84-0.33-1.25
				c-0.19,0.18-0.38,0.37-0.58,0.55c-0.7,0.67,0.36,1.73,1.06,1.06c0.19-0.18,0.38-0.37,0.58-0.55c0.43-0.41,0.18-1.07-0.33-1.25
				c-4.16-1.45-6.39-5.05-9.46-7.94c-2.59-2.45-6.97-4.42-6.46-8.62c-0.5,0-1,0-1.5,0c0.06,0.59,0.08,1.19,0.06,1.79
				c0.49-0.07,0.98-0.13,1.47-0.2c-0.03-0.67-0.06-1.35-0.09-2.02C392.21,316.28,390.71,316.29,390.65,317.25L390.65,317.25z"/>
		</g>
	</g>
	<g>
		<g>
			<path d="M393.85,324.2c2.52,1.97,4.66,4.32,6.69,6.77c0.62,0.74,1.67-0.32,1.06-1.06c-2.03-2.45-4.17-4.8-6.69-6.77
				C394.16,322.55,393.09,323.61,393.85,324.2L393.85,324.2z"/>
		</g>
	</g>
	<g>
		<g>
			<path d="M396.47,310.46c-0.95,0.85-1.93,1.67-2.91,2.48c-0.74,0.62,0.32,1.67,1.06,1.06c0.98-0.81,1.96-1.63,2.91-2.48
				C398.25,310.88,397.19,309.82,396.47,310.46L396.47,310.46z"/>
		</g>
	</g>
	<g>
		<g>
			<path d="M391.33,319.81c3.33,1.76,6.96,1.03,10.56,1.12c0.85,0.02,1.01-1.26,0.2-1.47c-3.51-0.94-7.06-1.38-10.7-1.32
				c-0.68,0.01-1.1,1.09-0.38,1.4c1.39,0.6,2.79,0.85,4.3,1c1.94,0.2,3.63-0.53,5.5-0.43c-0.13-0.47-0.25-0.93-0.38-1.4
				c-1.91,1.21-3.89,0.27-5.9-0.04c-0.41-0.06-1.22-0.13-1.29-0.25c-0.06-0.11,0.19-0.58,0.19-0.75c0-0.51-0.24-0.95-0.71-1.14
				c-0.31-0.12-1.44,0.06-0.93,0.29c0.09,0.34,0.18,0.68,0.27,1.03c0.64-1.02,1.41-1.65,2.56-2.05c-0.24-0.42-0.49-0.84-0.73-1.25
				c0.04,0.11,0.09,0.22,0.13,0.34c0.37-0.36,0.8-0.64,1.27-0.83c0.68-0.33,1.25-0.46,2.03-0.52c0.96-0.08,0.96-1.58,0-1.5
				c-1.86,0.15-5.48,1.27-5.14,3.68c0.04,0.25,0.3,0.46,0.52,0.52c0.94,0.26,1.51-0.04,2.25-0.63c0.58-0.47-0.05-1.49-0.73-1.25
				c-1.5,0.53-2.6,1.39-3.45,2.74c-0.2,0.32-0.09,0.87,0.27,1.03c0.3,0.14,0.5,0.11,0.8,0.17c0.78,0.16,0.51-1.15-0.12-0.11
				c-0.43,0.71,0.09,1.38,0.65,1.71c0.48,0.28,1.82,0.22,2.16,0.28c1,0.16,1.96,0.49,2.97,0.6c1.36,0.15,2.54-0.05,3.69-0.78
				c0.64-0.41,0.36-1.36-0.38-1.4c-1.42-0.08-2.7,0.52-4.12,0.54c-1.61,0.02-3.45-0.27-4.92-0.91c-0.13,0.47-0.25,0.93-0.38,1.4
				c3.5-0.05,6.92,0.37,10.3,1.27c0.07-0.49,0.13-0.98,0.2-1.47c-3.29-0.09-6.76,0.68-9.81-0.92
				C391.23,318.06,390.47,319.36,391.33,319.81L391.33,319.81z"/>
		</g>
	</g>
	<g>
		<g>
			<path d="M395.88,319.86c1.35,0.52,2.72,1.04,4.18,1.21c1.36,0.15,2.45,0.07,3.77,0.54c-0.17-0.17-0.35-0.35-0.52-0.52
				c0,0.01-2.97,1.86-3.3,2.15c-1.04,0.9-2.09,1.71-2.63,2.99c-0.29,0.69,0.79,1.29,1.25,0.73c0.27-0.33,1.43-1.89,1.47-1.89
				c-0.25-0.25-0.5-0.5-0.75-0.75c-0.1,0.99-0.24,1.97-0.43,2.95c-0.18,0.94,1.15,1.33,1.45,0.4c0.32-0.99,0.3-1.84-0.08-2.81
				c-0.24-0.6-1-0.75-1.37-0.18c-0.41,0.63-0.69,1.25-0.9,1.96c0.49,0.07,0.98,0.13,1.47,0.2c-0.3-3.89,4.49-3.4,5.96-6.04
				c0.18-0.32,0.11-0.86-0.27-1.03c-1.47-0.64-2.94-1.04-4.53-1.22c-0.96-0.11-0.95,1.39,0,1.5c1.32,0.15,2.56,0.48,3.77,1.02
				c-0.09-0.34-0.18-0.68-0.27-1.03c-0.84,1.51-3.22,1.77-4.5,2.9c-1.16,1.02-1.79,2.36-1.67,3.91c0.06,0.82,1.22,1.04,1.47,0.2
				c0.18-0.59,0.42-1.09,0.75-1.6c-0.46-0.06-0.91-0.12-1.37-0.18c0.27,0.67,0.3,1.33,0.08,2.02c0.48,0.13,0.96,0.27,1.45,0.4
				c0.21-1.11,0.37-2.22,0.48-3.35c0.04-0.38-0.38-0.78-0.75-0.75c-1.16,0.08-1.86,1.52-2.54,2.33c0.42,0.24,0.84,0.49,1.25,0.73
				c0.7-1.66,2.94-2.87,4.42-3.68c0.72-0.39,1.86-1.2,1.54-2.19c-0.26-0.79-1.61-1.09-2.32-1.15c-1.05-0.09-2.01,0.05-3.07-0.17
				c-1.07-0.23-2.09-0.63-3.11-1.02C395.38,318.07,394.99,319.52,395.88,319.86L395.88,319.86z"/>
		</g>
	</g>
	<g>
		<g>
			<path d="M395.94,311.99c-0.73,0.91-1.65,1.33-2.51,2.04c-0.04,0.03-1.11,1.35-0.85,1.38c0.22,0.38,0.43,0.75,0.65,1.13
				c0.81-1.73,2.01-2.31,3.59-3.15c0.87-0.46,1.39-0.94,1.74-1.88c-0.46,0.06-0.91,0.12-1.37,0.18c0.5,0,1,0,1.49-0.01
				c-0.25-0.25-0.5-0.5-0.75-0.75c0.11,0.27,0.22,0.54,0.33,0.8c-0.25-0.25-0.5-0.5-0.75-0.75c-0.29,0.06-0.59,0.12-0.88,0.18
				c0.22,0.38,0.43,0.75,0.65,1.13c0.02,0.33,0.04,0.65,0.06,0.98c-0.37-0.28-0.73-0.56-1.1-0.85c-0.36,0.35-0.72,0.69-1.08,1.04
				c0.32,0.24,0.63,0.48,0.95,0.72c0.02-0.09,0.04-0.17,0.05-0.26c-0.43,0-0.86,0-1.3,0c0,0.01-2.61,1.41-2.63,1.42
				c0.37,0.28,0.73,0.56,1.1,0.85c0.62-1.65,3.51-2.96,5.06-3.38c-0.28-0.37-0.56-0.73-0.85-1.1c-1.59,3.01-6.43,4.75-5.29,8.92
				c0.48-0.13,0.96-0.27,1.45-0.4c-0.69-1.65,0.67-2.81,1.79-3.76c0.59-0.49-0.04-1.45-0.73-1.25c-1.02,0.29-1.93,0.67-2.87,1.16
				c-0.85,0.45-0.1,1.75,0.76,1.3c0.81-0.43,1.63-0.75,2.51-1.01c-0.24-0.42-0.49-0.84-0.73-1.25c-1.58,1.33-3.08,3.05-2.18,5.22
				c0.36,0.86,1.71,0.56,1.45-0.4c-0.9-3.29,3.84-5.3,5.14-7.76c0.3-0.57-0.2-1.28-0.85-1.1c-2.22,0.6-5.25,2.14-6.11,4.43
				c-0.25,0.68,0.57,1.08,1.1,0.85c0.66-0.29,1.28-0.72,1.93-0.97c0.35-0.13,0.69-0.1,1-0.33c0.76-0.57,0.66-1.44,0.24-2.17
				c-0.27-0.48-1.03-0.5-1.3,0c-0.2,0.39-0.26,0.58-0.26,1.02c0,0.53,0.47,0.79,0.95,0.72c1.17-0.17,1.93-0.93,2.12-2.09
				c0.11-0.64-0.49-1.17-1.1-0.85c-2.2,1.17,0.18,3.79,1.52,2.13c1.12-1.39-1-4.33-2.12-2.56c-0.32,0.5,0.1,1.1,0.65,1.13
				c1.11,0.05,2.72-0.49,2.35-1.93c-0.25-0.98-1.42-1.35-2.16-0.61c-1.83,1.84,2,4.24,2.19,0.86c0.02-0.4-0.36-0.76-0.75-0.75
				c-1.07,0.02-1.89,1.23-0.95,2.08c1.09,0.99,2.26-0.24,2.12-1.38c-0.04-0.37-0.31-0.79-0.75-0.75c-1.08,0.11-2.83,1.4-1.45,2.48
				c1.25,0.98,1.74-0.83,1.26-1.73c-0.33-0.61-1.16-0.39-1.37,0.18c-0.39,1.04-2.29,1.42-3.14,2.06c-0.92,0.69-1.55,1.57-2.04,2.6
				c-0.26,0.55,0.06,1.06,0.65,1.13c0.95,0.12,1.02-0.41,1.47-1.04c0.79-1.09,2.07-1.72,2.94-2.82
				C397.59,312.31,396.54,311.24,395.94,311.99L395.94,311.99z"/>
		</g>
	</g>
	<g>
		<g>
			<path d="M397.45,311.76c0.41-0.64,1.12-1.8,2.07-1.39c-0.11-0.28-0.23-0.56-0.34-0.85c-0.17,0.46-0.43,0.8-0.83,1.09
				c0.34,0.34,0.68,0.68,1.03,1.03c0.34-0.56,0.78-0.81,1.43-0.82c-0.25-0.25-0.5-0.5-0.75-0.75c-0.12,0.87-0.93,2.03-1.93,1.93
				c0.24,0.18,0.48,0.37,0.72,0.55c-0.13-0.32,0.93-1.15,1.16-1.32c-0.43-0.18-0.85-0.35-1.28-0.53c-0.04,0.68-0.53,1.26-1.22,1.34
				c0.22,0.38,0.43,0.75,0.65,1.13c0.23-0.53,0.49-1.03,0.83-1.49c0.17-0.23,0.78-1.15,1.09-1.17c-0.24-0.32-0.48-0.63-0.72-0.95
				c-0.28,0.76-0.78,1.46-1.53,1.79c0.19-0.03,0.39-0.05,0.58-0.08c-0.08-0.02-0.17-0.04-0.25-0.06c0.17,0.17,0.35,0.35,0.52,0.52
				c-0.08-0.28,0.69-1.19,0.82-1.36c0.15-0.19,0.33-0.47,0.53-0.61c0.09-0.06,0.73-0.3,0.33-0.09c0.19-0.03,0.39-0.05,0.58-0.08
				c0.32,0.08,0.45-0.08,0.14-0.29c-0.43-0.3-0.27,0.29-0.05,0.22c0.19,0.03,0.39,0.05,0.58,0.08c-0.29-0.01-0.54,0.08-0.73,0.29
				c0.42,0.11,0.84,0.22,1.25,0.33c-0.04,0.04-0.07,0.08-0.11,0.12c-0.32-0.24-0.63-0.48-0.95-0.72c0.48,0.32,0.7,0.22,0.66-0.29
				c0.53,0.8,1.83,0.05,1.3-0.76c-1.06-1.61-3.05,0.05-3.02,1.54c0.01,0.75,0.6,1.28,1.34,1.21c0.88-0.08,1.27-0.91,1.22-1.7
				c-0.02-0.47-0.46-0.88-0.95-0.72c-0.76,0.24-1.19,0.94-0.94,1.72c0.19,0.58,0.81,0.68,1.25,0.33c0.75-0.59,1.27-1.85,0.21-2.46
				c-0.88-0.5-2.01,0.38-2.02,1.32c-0.02,1.01,1.33,1.64,1.97,0.74c0.53-0.75,0.44-2.34-0.58-2.59c-1.02-0.26-1.89,0.91-1.92,1.84
				c-0.04,1.05,1.11,1.68,1.93,0.94c0.84-0.76,0.98-2.33-0.19-2.82c-1.25-0.52-2.33,0.68-3.01,1.56c-0.53,0.69-2.05,2.8-0.43,3.23
				c1.39,0.37,2.55-1.7,2.93-2.73c0.16-0.44-0.26-0.98-0.72-0.95c-1.52,0.11-2.67,2.16-3.21,3.41c-0.2,0.45,0.02,1.2,0.65,1.13
				c1.54-0.18,2.63-1.27,2.72-2.84c0.04-0.72-0.82-0.89-1.28-0.53c-0.73,0.57-1.95,1.75-1.54,2.78c0.13,0.34,0.36,0.51,0.72,0.55
				c1.87,0.19,3.22-1.81,3.43-3.43c0.05-0.4-0.39-0.75-0.75-0.75c-1.18,0.01-2.12,0.55-2.73,1.56c-0.37,0.61,0.4,1.48,1.03,1.03
				c0.74-0.53,1.2-1.14,1.52-1.98c0.1-0.28-0.06-0.73-0.34-0.85c-1.83-0.78-3.17,0.45-4.12,1.93
				C395.63,311.82,396.93,312.57,397.45,311.76L397.45,311.76z"/>
		</g>
	</g>
	<g>
		<g>
			<path d="M402.53,309.95c0.62-0.66,1.63-0.57,2.46-0.53c0.96,0.05,0.96-1.45,0-1.5c-1.25-0.07-2.6,0-3.52,0.97
				C400.8,309.58,401.86,310.65,402.53,309.95L402.53,309.95z"/>
		</g>
	</g>
	<g>
		<g>
			<path d="M406.07,309.13c-0.67,0.06-0.19-0.7,0.17-0.83c0.17-0.06,0.6-0.14,0.67,0.01c0.09,0.18-0.07,0.55-0.26,0.61
				c-0.1,0.03-0.31,0.01-0.3-0.14c0.02-0.16,0.45-0.23,0.55-0.25c0.06-0.01,0.13-0.02,0.19-0.03c0.15,0.01,0.15-0.08-0.01-0.27
				c0,0-0.19,0.18-0.22,0.2c-0.31,0.15-0.74,0.02-1.05-0.05c0.18,0.24,0.37,0.48,0.55,0.72c0.02-0.18,0.04-0.41,0.13-0.58
				c0.05-0.08,0.27-0.19,0.28-0.21c0.12-0.24-0.35-0.02-0.35-0.02c-0.36-0.05-0.33,0.12,0.09,0.53c0.03-0.07,0.07-0.14,0.12-0.2
				c0.13-0.15,0.02-0.27-0.33-0.34c-0.15,0.28,0.01,0.46,0.48,0.54c0.11-0.08,0.18-0.59,0.25-0.73c0.04-0.1,0.1-0.18,0.17-0.26
				c-0.08,0-0.11,0.03-0.07,0.09c0.02-0.04,0.05-0.05,0.1-0.05c0.27,0.3,0.22,0.46-0.15,0.47c-0.15-0.37-0.3-0.73-0.45-1.1
				c-0.17,0.32-0.36,0.59-0.61,0.85c0.35,0.35,0.71,0.71,1.06,1.06c0.09-0.1,0.2-0.15,0.3-0.23c0.12-0.1,0.26,0.11,0.04-0.1
				c-0.07-0.18-0.15-0.35-0.22-0.53c0-0.08-0.08,0.13-0.15,0.21c-0.13,0.15-0.2,0.1-0.09,0.26c-0.56-0.78-1.86-0.03-1.3,0.76
				c0.87,1.23,2.43,0.49,2.94-0.68c0.3-0.69-0.12-1.3-0.83-1.41c-0.66-0.1-1.32,0.16-1.76,0.66c-0.63,0.72,0.38,1.76,1.06,1.06
				c0.34-0.35,0.62-0.73,0.85-1.16c0.21-0.4,0.05-1.01-0.45-1.1c-1.02-0.2-1.98,0.87-1.41,1.85c0.52,0.89,1.89,0.76,2.37-0.08
				c0.53-0.92-0.12-2.28-1.21-2.34c-1.13-0.07-1.73,1.26-1.91,2.18c-0.22,1.12,0.99,1.92,1.89,1.13c0.8-0.7,0.91-2.3-0.34-2.55
				c-0.99-0.19-2.16,1.05-1.77,2.03c0.41,1.04,2.05,0.78,2.67,0.11c0.84-0.92,0.26-2.38-1-2.41c-1.29-0.03-1.81,1.18-1.92,2.28
				c-0.03,0.31,0.25,0.66,0.55,0.72c0.84,0.19,1.75,0.28,2.47-0.28c0.62-0.48,0.95-1.4,0.45-2.08c-0.49-0.67-1.52-0.53-2.21-0.28
				c-0.71,0.25-1.29,0.84-1.27,1.64c0.04,1.88,2.62,2.07,3.35,0.53c0.34-0.72,0.24-1.74-0.39-2.28c-0.59-0.51-1.59-0.41-2.26-0.12
				c-0.84,0.36-1.43,1.19-1.33,2.12c0.1,0.9,0.92,1.63,1.83,1.55C407.03,310.54,407.03,309.04,406.07,309.13L406.07,309.13z"/>
		</g>
	</g>
	<g>
		<g>
			<path d="M401.71,308.66c-1.16,0.61-2.24,1.34-3.26,2.16c-0.75,0.6,0.31,1.66,1.06,1.06c0.92-0.74,1.92-1.37,2.96-1.92
				C403.33,309.51,402.57,308.21,401.71,308.66L401.71,308.66z"/>
		</g>
	</g>
	<g>
		<g>
			<path d="M402.84,316.59c1.5-0.38,3.02-0.5,4.55-0.24c0.9,0.16,1.1,0.17,1.16,1.08c-0.02,0.34-0.05,0.67-0.09,1.01
				c0.45,0.54,0.45,0.73,0.03,0.56c-0.4,0.12-1.38-0.28-1.8-0.35c-0.58-0.1-1.17-0.19-1.75-0.27c-0.39-0.05-1.74,0.01-1.99-0.34
				c-0.18-0.25,0.18-1.71,0.22-2.04c0.1-0.96-1.4-0.95-1.5,0c-0.09,0.87-0.57,2.31,0.01,3.1c0.49,0.66,1.49,0.57,2.22,0.65
				c1.33,0.15,2.63,0.38,3.94,0.64c0.65,0.13,1.26,0.33,1.74-0.25c0.57-0.7,0.49-2.38,0.51-3.21c0.02-0.7,0.01-1.22-0.66-1.58
				c-1.95-1.07-4.95-0.72-6.99-0.2C401.5,315.39,401.9,316.83,402.84,316.59L402.84,316.59z"/>
		</g>
	</g>
	<g>
		<g>
			<path d="M401.05,308.8c-0.26,2.13-0.51,4.25-0.59,6.39c-0.02,0.52,0.49,0.81,0.95,0.72c0.24-0.04,3.92,0.41,3.97,0.06
				c0.08-0.52-0.2-0.89-0.72-0.95c-1.19-0.13-2.55-0.13-3.67-0.55c0.17,0.17,0.35,0.35,0.52,0.52c-0.25-0.67,0.34-2.12,0.45-2.85
				c0.13-0.95,0.21-1.9,0.25-2.86c0.04-0.97-1.46-0.96-1.5,0c-0.06,1.32-0.18,2.62-0.44,3.92c-0.14,0.67-0.53,1.51-0.2,2.19
				c0.56,1.16,3.52,1.01,4.59,1.13c-0.24-0.32-0.48-0.63-0.72-0.95c-0.22,1.45,1.67,2.72,2.46,1.11c0.81-1.66-1.89-2.57-2.53-0.89
				c-0.59,1.55,1.84,2.49,2.33,0.95c0.74-2.34-3.96-2.5-5.19-2.27c0.32,0.24,0.63,0.48,0.95,0.72c0.08-2.14,0.32-4.27,0.59-6.39
				C402.67,307.85,401.17,307.85,401.05,308.8L401.05,308.8z"/>
		</g>
	</g>
	<g>
		<g>
			<path d="M409.69,319.95c0.63-0.93,1.26-1.85,1.9-2.78c0.36-0.52-0.14-1.07-0.65-1.13c-0.47-0.06-0.92,0.06-1.31,0.32
				c-0.81,0.52-0.06,1.82,0.76,1.3c0.2-0.13,0.32-0.14,0.55-0.11c-0.22-0.38-0.43-0.75-0.65-1.13c-0.63,0.93-1.26,1.85-1.9,2.78
				C407.85,319.99,409.14,320.74,409.69,319.95L409.69,319.95z"/>
		</g>
	</g>
	<g>
		<g>
			<path d="M399.91,327.42c-0.04,0.01-0.09,0.02-0.13,0.03c-0.18-0.43-0.35-0.85-0.53-1.28c-0.41,0.36-0.51,0.86-0.41,1.38
				c0.19,0.95,1.63,0.55,1.45-0.4c-0.05,0.11-0.04,0.13,0.03,0.08c0.48-0.42,0.11-1.32-0.53-1.28c-0.5,0.03-0.93,0.25-1.16,0.71
				C398.19,327.53,399.49,328.29,399.91,327.42L399.91,327.42z"/>
		</g>
	</g>
</g>
<g>
	<path class="st10" d="M416.9,301.48c-0.63,0.07-0.92,0.21-1.19-0.24c-0.6-1-0.48-1.99,0.41-3.26c0.97-1.4,2.34-2.19,3.19-1.45
		c0.33,0.29,0.51,0.69,0.62,1.33"/>
	<path class="st10" d="M419.89,297.93c0.57-0.25,1.45,0.19,1.77,0.5c1.2,1.18-1.26,3.2-1.67,3.53c-1.37,1.09-2.21,0.88-2.36,0.65
		c-0.25-0.36-0.5-0.48-0.68-1.1"/>
	<g>
		<path d="M419.99,297.79c0.5-0.43,1.05-0.7,1.47-0.72"/>
		<g>
			<path d="M420.52,298.32c0.26-0.21,0.6-0.46,0.94-0.5c0.4-0.04,0.75-0.32,0.75-0.75c0-0.37-0.34-0.79-0.75-0.75
				c-0.78,0.08-1.4,0.44-2,0.94c-0.32,0.26-0.26,0.79,0,1.06C419.76,298.63,420.21,298.57,420.52,298.32L420.52,298.32z"/>
		</g>
	</g>
</g>
<g>
	<g>
		<line class="st11" x1="419.54" y1="308.8" x2="428.06" y2="300.28"/>
		<g>
			<polygon points="423.52,309.21 423.49,308.45 419.75,308.59 419.88,304.84 419.12,304.82 418.96,309.38 			"/>
		</g>
	</g>
</g>
<text transform="matrix(0.7071 0.7071 -0.7071 0.7071 424.4334 307.8878)" class="st6 st12">mg</text>
<g>
	<g>
		<path d="M405.71,336.5c1.93,0,1.93-3,0-3C403.78,333.5,403.78,336.5,405.71,336.5L405.71,336.5z"/>
	</g>
</g>
<g>
	<g>
		<path d="M406.57,337.35c1.93,0,1.93-3,0-3C404.64,334.35,404.63,337.35,406.57,337.35L406.57,337.35z"/>
	</g>
</g>
<g>
	<g>
		<path d="M404.08,334.93c1.93,0,1.93-3,0-3C402.15,331.93,402.15,334.93,404.08,334.93L404.08,334.93z"/>
	</g>
</g>
<g>
	<g>
		<path d="M402.16,333.3c1.93,0,1.93-3,0-3C400.23,330.3,400.23,333.3,402.16,333.3L402.16,333.3z"/>
	</g>
</g>
<g>
	<g>
		<path d="M391.29,322.86c1.93,0,1.93-3,0-3C389.36,319.86,389.36,322.86,391.29,322.86L391.29,322.86z"/>
	</g>
</g>
<g>
	<g>
		<path d="M392.43,324.49c1.93,0,1.93-3,0-3C390.5,321.49,390.49,324.49,392.43,324.49L392.43,324.49z"/>
	</g>
</g>
<g>
	<g>
		<path d="M394.35,325.84c1.93,0,1.93-3,0-3C392.42,322.84,392.41,325.84,394.35,325.84L394.35,325.84z"/>
	</g>
</g>
<g>
	<g>
		<path d="M395.44,327.41c0.05,0.02,0.09,0.05,0.14,0.07c0.72,0.36,1.62,0.19,2.05-0.54c0.39-0.66,0.19-1.69-0.54-2.05
			c-0.05-0.02-0.09-0.05-0.14-0.07c-0.72-0.36-1.62-0.19-2.05,0.54C394.51,326.03,394.71,327.05,395.44,327.41L395.44,327.41z"/>
	</g>
</g>
<g>
	<g>
		<path d="M404.33,547.67c1.57,3.41,1.6,6.85,2.38,10.44c0.69,3.15,1.56,6.26,2.34,9.38c0.12,0.47,0.84,0.27,0.72-0.2
			c-0.93-3.68-2.07-7.38-2.64-11.14c-0.48-3.14-0.81-5.95-2.16-8.87C404.77,546.86,404.13,547.24,404.33,547.67L404.33,547.67z"/>
	</g>
</g>
<g>
	<g>
		<path d="M391.07,556.53c1.46,1.12,3.19,1.71,4.7,2.78c1.3,0.93,2.52,1.96,3.84,2.86c1.3,0.89,2.65,1.7,3.99,2.53
			c0.88,0.54,1.76,1.07,2.64,1.61c0.4,0.25,3.19,1.4,3.16,1.35c-0.28-0.39-0.93-0.02-0.65,0.38c0.02,0.03,0.05,0.06,0.07,0.1
			c0.12,0.17,0.32,0.24,0.51,0.13c0.04-0.02,0.09-0.05,0.13-0.07c0.17-0.09,0.25-0.35,0.13-0.51c-1.65-2.25-5.79-3.69-8.13-5.19
			c-1.82-1.17-3.46-2.55-5.23-3.8c-1.53-1.08-3.32-1.68-4.79-2.81C391.07,555.59,390.69,556.24,391.07,556.53L391.07,556.53z"/>
	</g>
</g>
<g>
	<g>
		<g>
			<g>
				<path d="M415.19,584.13c-1.95-5.81-3.73-11.67-5.41-17.57c-0.26-0.93-1.71-0.53-1.45,0.4c1.68,5.89,3.47,11.75,5.41,17.57
					C414.05,585.44,415.5,585.05,415.19,584.13L415.19,584.13z"/>
			</g>
		</g>
		<g>
			<g>
				<path d="M415.01,583.24c-0.41-0.7-0.9-1.34-1.46-1.92c-0.38-0.39-1.14-0.23-1.25,0.33c-0.37,1.73,0.57,3.38,2.23,3.98
					c0.48,0.17,0.93-0.27,0.95-0.72c0.06-1.36-0.58-2.54-1.69-3.31c-0.52-0.36-1.07,0.14-1.13,0.65c-0.2,1.64,0.41,3.25,1.61,4.38
					c0.37,0.35,1.16,0.26,1.25-0.33c0.24-1.48-0.16-2.88-1.23-3.94c-0.42-0.42-1.07-0.19-1.25,0.33c-0.18,0.54-0.12,1.01,0.18,1.49
					c0.5,0.82,1.8,0.07,1.3-0.76c-0.01-0.11-0.02-0.22-0.03-0.33c-0.42,0.11-0.84,0.22-1.25,0.33c0.66,0.66,1,1.55,0.85,2.49
					c0.42-0.11,0.84-0.22,1.25-0.33c-0.95-0.88-1.33-2.04-1.17-3.31c-0.38,0.22-0.75,0.43-1.13,0.65c0.68,0.47,0.99,1.2,0.95,2.01
					c0.32-0.24,0.63-0.48,0.95-0.72c-0.86-0.31-1.37-1.24-1.18-2.13c-0.42,0.11-0.84,0.22-1.25,0.33c0.48,0.5,0.88,1.02,1.23,1.62
					C414.2,584.83,415.5,584.08,415.01,583.24L415.01,583.24z"/>
			</g>
		</g>
		<g>
			<g>
				<path d="M413.5,578.37c-2.33-1.11-2.79-2.97-2.07-5.32c-0.48,0-0.96,0-1.45,0c0.32,1.43,0.5,2.85,0.55,4.31
					c0.49-0.07,0.98-0.13,1.47-0.2c-0.96-3.36-1.8-6.71-4.11-9.43c-0.63-0.74-1.68,0.33-1.06,1.06c2.12,2.5,2.85,5.69,3.73,8.76
					c0.23,0.8,1.5,0.66,1.47-0.2c-0.05-1.6-0.25-3.14-0.6-4.71c-0.17-0.75-1.24-0.68-1.45,0c-0.91,2.98-0.16,5.63,2.76,7.01
					C413.61,580.07,414.38,578.78,413.5,578.37L413.5,578.37z"/>
			</g>
		</g>
		<g>
			<g>
				<path d="M412.02,578.32c-0.01,0-0.02,0-0.03,0c-0.13,0-0.27,0-0.4,0c0-0.23,0-0.47-0.01-0.7c-0.03,0.01-0.07,0.01-0.1,0
					c-0.29-0.18,0.04,0.48-0.37,0.48c0.97,0,0.97-1.5,0-1.5c-0.76,0-1.33,0.74-1.12,1.48c0.2,0.7,0.97,1.07,1.65,1.03
					c0.72-0.04,1.39-0.66,1.19-1.42c-0.16-0.65-1-1.11-1.58-0.67c-0.33,0.25-0.49,0.64-0.27,1.03
					C411.17,578.37,411.69,578.56,412.02,578.32L412.02,578.32z"/>
			</g>
		</g>
		<g>
			<g>
				<path d="M412.16,573.85c-0.06-0.88-0.37-1.62-0.64-2.46c-0.19-0.6,0.12-1.44-0.51-0.7c-0.31,0.36-0.42,0.86-0.46,1.31
					c-0.15,2.02,2.58,3.65,1.79,5.55c-0.37,0.89,1.08,1.28,1.45,0.4c0.65-1.55-0.24-2.79-1.05-4.07c-0.57-0.91-0.71-1.25-0.54-2.37
					c0.04-0.29,0.15-0.52,0.15-0.82c-0.01-0.52-0.21-1.04-0.58-1.41c-0.61-0.61-1.47-0.66-1.88,0.16c-0.67,1.37,0.66,3.05,0.76,4.4
					C410.73,574.81,412.23,574.82,412.16,573.85L412.16,573.85z"/>
			</g>
		</g>
		<g>
			<g>
				<path d="M413.58,577.79c-0.34-0.48-0.67-0.96-1.01-1.45c-0.55-0.79-1.85-0.04-1.3,0.76c0.34,0.48,0.67,0.96,1.01,1.45
					C412.83,579.34,414.13,578.59,413.58,577.79L413.58,577.79z"/>
			</g>
		</g>
		<g>
			<g>
				<path d="M412.64,575.71c-1.29-1.73-1.8-3.69-1.53-5.83c0.12-0.95-1.38-0.95-1.5,0c-0.3,2.35,0.32,4.68,1.74,6.58
					C411.91,577.23,413.22,576.48,412.64,575.71L412.64,575.71z"/>
			</g>
		</g>
		<g>
			<g>
				<path d="M408.79,566.61c0.41,0.96,0.82,1.92,1.23,2.88c0.39-0.3,0.79-0.61,1.18-0.91c-0.53-0.62-1.07-1.24-1.6-1.86
					c-0.63-0.73-1.69,0.33-1.06,1.06c0.53,0.62,1.07,1.24,1.6,1.86c0.24,0.28,0.71,0.27,0.98,0.06c0.32-0.25,0.34-0.62,0.19-0.97
					c-0.41-0.96-0.82-1.92-1.23-2.88c-0.16-0.38-0.71-0.45-1.03-0.27C408.67,565.8,408.63,566.23,408.79,566.61L408.79,566.61z"/>
			</g>
		</g>
		<g>
			<g>
				<path d="M400.53,542.81c0.77,0.69,1.21,1.54,1.42,2.54c0.2,0.94,1.65,0.54,1.45-0.4c-0.26-1.23-0.87-2.36-1.81-3.2
					C400.87,541.11,399.81,542.17,400.53,542.81L400.53,542.81z"/>
			</g>
		</g>
		<g>
			<g>
				<path d="M400.11,543.42c0.28,0.2,0.56,0.4,0.85,0.58c0.71,0.44,1.56-0.61,0.91-1.18c-0.28-0.24-0.56-0.48-0.86-0.7
					c-0.32-0.25-0.75-0.31-1.06,0c-0.26,0.26-0.32,0.81,0,1.06c0.29,0.23,0.58,0.46,0.86,0.7c0.3-0.39,0.61-0.79,0.91-1.18
					c-0.29-0.18-0.57-0.37-0.85-0.58c-0.33-0.24-0.83-0.05-1.03,0.27C399.62,542.77,399.78,543.18,400.11,543.42L400.11,543.42z"/>
			</g>
		</g>
		<g>
			<g>
				<path d="M400.33,542.68c0.45,0.63,0.92,1.26,1.5,1.79c0.24-0.42,0.49-0.84,0.73-1.25c-0.59-0.22-1.14-0.54-1.61-0.95
					c-0.73-0.63-1.79,0.43-1.06,1.06c0.68,0.59,1.43,1.03,2.27,1.33c0.7,0.26,1.27-0.77,0.73-1.25c-0.49-0.44-0.88-0.95-1.26-1.48
					C401.07,541.14,399.77,541.89,400.33,542.68L400.33,542.68z"/>
			</g>
		</g>
		<g>
			<g>
				<path d="M404.95,546.81c-0.22-1.08-0.43-2.16-0.65-3.24c-0.2-0.94-1.64-0.54-1.45,0.4c0.22,1.08,0.43,2.16,0.65,3.24
					C403.7,548.15,405.15,547.75,404.95,546.81L404.95,546.81z"/>
			</g>
		</g>
		<g>
			<g>
				<path d="M403.51,545.14c-0.39-0.91-0.53-1.91-0.77-2.87c-0.23-0.94-1.68-0.54-1.45,0.4c0.27,1.09,0.47,2.18,0.92,3.22
					C402.6,546.78,403.89,546.02,403.51,545.14L403.51,545.14z"/>
			</g>
		</g>
		<g>
			<g>
				<path d="M387.59,553.56c1.27,0.97,2.78,1.56,4.07,2.5c0.78,0.57,1.53-0.73,0.76-1.3c-1.29-0.94-2.8-1.52-4.07-2.5
					C387.58,551.67,386.83,552.98,387.59,553.56L387.59,553.56z"/>
			</g>
		</g>
		<g>
			<g>
				<path d="M386.12,553.35c0.17-0.11,0.34-0.21,0.51-0.32c-0.37-0.15-0.73-0.3-1.1-0.45c0.02,0.12,0.07-0.17,0.08-0.14
					c0,0-0.31,0.06-0.17,0.03c-0.95,0.19-0.55,1.64,0.4,1.45c0.88-0.18,1.29-0.88,1.13-1.74c-0.09-0.47-0.72-0.69-1.1-0.45
					c-0.17,0.11-0.35,0.21-0.51,0.32C384.57,552.59,385.32,553.89,386.12,553.35L386.12,553.35z"/>
			</g>
		</g>
		<g>
			<g>
				<path d="M385.61,554.3c0.45-0.01,0.86,0.03,1.3,0.15c-0.11-0.42-0.22-0.84-0.33-1.25c-0.36,0.36-0.77,0.6-1.26,0.75
					c-0.92,0.29-0.53,1.73,0.4,1.45c0.73-0.23,1.37-0.6,1.92-1.14c0.4-0.39,0.21-1.11-0.33-1.25c-0.55-0.15-1.12-0.22-1.69-0.2
					C384.65,552.82,384.65,554.32,385.61,554.3L385.61,554.3z"/>
			</g>
		</g>
		<g>
			<g>
				<path d="M390.57,554.11c-0.84-0.45-1.67-0.89-2.51-1.34c-0.72-0.39-1.57,0.59-0.91,1.18c0.57,0.51,1.17,0.94,1.85,1.29
					c0.87,0.46,1.53-0.73,0.76-1.3c-1.24-0.9-2.72-0.73-4.17-0.67c-0.96,0.04-0.97,1.54,0,1.5c1.17-0.05,2.4-0.27,3.41,0.46
					c0.25-0.43,0.5-0.86,0.76-1.3c-0.57-0.3-1.07-0.63-1.55-1.06c-0.3,0.39-0.61,0.79-0.91,1.18c0.84,0.45,1.67,0.89,2.51,1.34
					C390.66,555.86,391.42,554.56,390.57,554.11L390.57,554.11z"/>
			</g>
		</g>
		<g>
			<g>
				<path d="M412.73,577.88c-0.06-0.6-0.12-1.19-0.18-1.79c-0.47,0.13-0.93,0.25-1.4,0.38c0.43,0.67,0.98,1.19,1.7,1.52
					c0.6,0.27,1.25-0.17,1.1-0.85c-0.34-1.58-0.93-3.07-1.76-4.45c-0.49-0.83-1.79-0.07-1.3,0.76c0.77,1.28,1.29,2.64,1.61,4.1
					c0.37-0.28,0.73-0.56,1.1-0.85c-0.5-0.23-0.87-0.51-1.17-0.98c-0.37-0.58-1.47-0.41-1.4,0.38c0.06,0.6,0.12,1.19,0.18,1.79
					C411.33,578.83,412.83,578.84,412.73,577.88L412.73,577.88z"/>
			</g>
		</g>
		<g>
			<g>
				<path d="M386.35,553.91c0.15,0.03,0.3,0.05,0.45,0.08c0.94,0.17,1.35-1.28,0.4-1.45c-0.15-0.03-0.3-0.05-0.45-0.08
					C385.81,552.3,385.4,553.74,386.35,553.91L386.35,553.91z"/>
			</g>
		</g>
		<g>
			<g>
				<path d="M403.95,546.08c-0.28-1.43-0.75-2.78-1.39-4.09c-0.43-0.86-1.72-0.11-1.3,0.76c0.59,1.19,0.99,2.43,1.24,3.73
					C402.69,547.42,404.14,547.02,403.95,546.08L403.95,546.08z"/>
			</g>
		</g>
		<g>
			<g>
				<path d="M388.37,552.14c-0.59-0.31-0.95-0.64-1.29-1.23c-0.34,0.34-0.68,0.68-1.03,1.03c-0.42-0.21,0.01-0.31-0.6-0.06
					c-0.13,0.05-0.83,0.41-0.87,0.53c-0.2,0.66,0.81,0.75,1.2,0.64c0.74-0.2,1.06-0.88,0.84-1.58c-0.07-0.23-0.27-0.48-0.52-0.52
					c-1.54-0.27-2.08,1.63-3.25,2.34c-0.57,0.34-0.43,1.18,0.18,1.37c0.48,0.15,0.87,0.16,1.36,0.07c1.08-0.2,1.59-0.29,2.69,0.11
					c1.25,0.46,2.94,0.64,3.82,1.7c0.62,0.74,1.67-0.32,1.06-1.06c-1.01-1.21-2.42-1.3-3.81-1.81c-0.7-0.26-1.35-0.74-2.11-0.8
					c-0.88-0.07-1.76,0.62-2.61,0.35c0.06,0.46,0.12,0.91,0.18,1.37c0.23-0.14,2.35-2.14,2.09-2.18c-0.17-0.17-0.35-0.35-0.52-0.52
					c-0.66-2.07-4.4,1.54-1.47,2.23c1.39,0.32,5.41-2.27,3.1-3.45c-0.65-0.33-1.42,0.35-1.03,1.03c0.46,0.8,1.01,1.34,1.83,1.77
					C388.47,553.89,389.23,552.6,388.37,552.14L388.37,552.14z"/>
			</g>
		</g>
		<g>
			<g>
				<path d="M403.43,542.3c-0.79-0.26-1.24-1.24-1.93-1.69c-0.58-0.38-1.26-0.63-1.96-0.63c-1.33-0.01-2.44,0.85-2.78,2.13
					c-0.12,0.45,0.23,0.98,0.72,0.95c1.45-0.09,3.1-0.2,4.23,0.88c0.18-0.43,0.35-0.85,0.53-1.28c-0.67,0.03-1.09-0.2-1.5-0.71
					c0,0.35,0,0.71,0,1.06c0.82-0.91,0.88-2.24-0.47-2.72c-1.68-0.6-2.3,1.3-3.58,1.81c-0.71,0.28-0.72,1.57,0.2,1.47
					c1.19-0.12,2.33-0.22,3.49,0.15c0.92,0.29,1.32-1.16,0.4-1.45c-1.28-0.4-2.57-0.33-3.89-0.2c0.07,0.49,0.13,0.98,0.2,1.47
					c0.45-0.18,0.82-0.39,1.19-0.72c0.17-0.15,0.32-0.33,0.48-0.49c0.13-0.15,0.27-0.28,0.44-0.4c0.15-0.21,0.31-0.21,0.49,0.02
					c-0.3,0.33-0.26,0.73,0,1.06c0.63,0.81,1.53,1.2,2.56,1.15c0.62-0.03,1.02-0.81,0.53-1.28c-1.45-1.38-3.4-1.44-5.29-1.32
					c0.24,0.32,0.48,0.63,0.72,0.95c0.44-1.64,2.25-0.98,3.07-0.09c0.55,0.59,0.97,1.08,1.75,1.34
					C403.95,544.05,404.35,542.61,403.43,542.3L403.43,542.3z"/>
			</g>
		</g>
	</g>
	<g>
		<g>
			<path d="M403.3,546.58c0.54,1.38,0.35,2.89,0.82,4.25c0.51,1.48,1.33,2.64,1.63,4.28c0.38,2.11,0.61,4.29,1.21,6.35
				c0.19,0.65,0.42,1.24,0.66,1.87c0.15,0.36,0.31,0.73,0.46,1.09c0.83,1,0.55,1.47-0.84,1.42c-0.26-0.4-0.91-0.03-0.65,0.38
				c0.71,1.1,0.46,0.82,1.51,1.6c0.3,0.22,0.59-0.14,0.55-0.42c-0.14-0.94-0.07-0.71-0.67-1.44c-0.27-0.33-0.82,0.1-0.59,0.45
				c0.74,1.13,0.43,0.83,1.58,1.53c0.24,0.15,0.57-0.04,0.56-0.32c-0.01-1.37-0.26-2.21-0.76-3.53c-1.07-2.8-1.63-5.41-2.16-8.35
				c-0.27-1.49-0.57-2.81-1.11-4.19c-0.68-1.72-0.8-3.43-1.48-5.16C403.85,545.94,403.12,546.13,403.3,546.58L403.3,546.58z"/>
		</g>
	</g>
	<g>
		<g>
			<path d="M392.61,555.85c-0.04-0.03-0.08-0.05-0.13-0.08c-0.26-0.41-0.85-0.05-0.65,0.38c0.79,1.64,1.71,2.24,3.28,2.98
				c2.11,0.99,3.7,2.31,5.69,3.57c1.3,0.82,2.9,1.45,4.01,2.6c1.36,1.42,2.15,2.98,4,3.83c0.1-0.23,0.19-0.46,0.29-0.69
				c-0.56-0.65-1.12-1.31-1.67-1.96c-0.21,0.12-0.42,0.24-0.63,0.36c0.27,0.5,0.55,0.99,0.82,1.49c0.08,0.24,0.32,0.33,0.55,0.22
				c0.24-0.11,0.49-0.23,0.73-0.34c0.44-0.21,0.06-0.85-0.38-0.65c-0.23,0.11-1.27-1.35-1.19-1.25c-0.25-0.3-0.72,0.03-0.63,0.36
				c0.35,1.33,0.96,1.97,2.2,2.49c0.39,0.16,0.67-0.51,0.29-0.69c-2.04-0.93-2.83-2.83-4.38-4.28c-1.08-1.01-2.42-1.61-3.55-2.53
				c-0.25-0.2-0.18-0.63-0.45-0.82c0.29,0.2-4.69-2.19-2.84-1.17c-1.85-1.02-4.55-1.93-5.49-3.9c-0.22,0.13-0.43,0.25-0.65,0.38
				c0.19,0.3,0.38,0.6,0.57,0.9c0.17,0.26,0.6,0.23,0.69-0.09c0.08-0.3,0.16-0.6,0.24-0.91
				C393.46,555.58,392.73,555.39,392.61,555.85L392.61,555.85z"/>
		</g>
	</g>
	<g>
		<g>
			<path d="M410.14,565.4c-0.44-0.52-0.88-1.04-1.32-1.56c-0.23-0.27-0.61-0.03-0.64,0.27c-0.09,0.91,0.01,1.69,0.32,2.56
				c0.23-0.1,0.46-0.19,0.69-0.29c-0.31-0.68-0.63-1.36-0.94-2.05c-0.19-0.4-0.77-0.11-0.69,0.29c0.19,0.87,0.22,1.51,0.09,2.39
				c0.25,0.03,0.49,0.07,0.74,0.1c-0.21-1.62-0.42-3.23-0.63-4.85c-0.25,0.03-0.49,0.07-0.74,0.1c0.25,0.86,0.54,1.7,0.85,2.54
				c0.15,0.41,0.69,0.32,0.74-0.1c0.2-1.76-0.08-3.38-0.79-5c-0.2-0.44-0.84-0.06-0.65,0.38c0.66,1.49,0.87,3.01,0.69,4.62
				c0.25-0.03,0.49-0.07,0.74-0.1c-0.31-0.84-0.6-1.68-0.85-2.54c-0.11-0.39-0.79-0.34-0.74,0.1c0.21,1.62,0.42,3.23,0.63,4.85
				c0.05,0.37,0.67,0.56,0.74,0.1c0.14-0.96,0.12-1.84-0.09-2.79c-0.23,0.1-0.46,0.19-0.69,0.29c0.31,0.68,0.63,1.36,0.94,2.05
				c0.18,0.38,0.83,0.11,0.69-0.29c-0.29-0.8-0.37-1.52-0.29-2.36c-0.21,0.09-0.43,0.18-0.64,0.27c0.44,0.52,0.88,1.04,1.32,1.56
				C409.92,566.3,410.45,565.77,410.14,565.4L410.14,565.4z"/>
		</g>
	</g>
</g>
<line class="st13" x1="441.06" y1="464.06" x2="483.24" y2="471.27"/>
<line class="st13" x1="474.37" y1="457.44" x2="470.15" y2="481.18"/>
<line class="st13" x1="444.35" y1="456.55" x2="441.41" y2="471.44"/>
<line class="st13" x1="446.71" y1="457.7" x2="443.99" y2="471.27"/>
<line class="st13" x1="448.96" y1="461.54" x2="447.53" y2="468.67"/>
<g>
	<g>
		<line class="st1" x1="513.39" y1="435.56" x2="490.92" y2="435.56"/>
		<g>
			<path d="M512.59,440.61c1.25-2.11,3.19-3.77,5.26-5.06c-2.09-1.27-3.95-2.99-5.26-5.06h-1.25c1.31,2,2.89,3.75,4.83,5.06
				c-1.95,1.33-3.58,3.09-4.85,5.06H512.59z"/>
			<path d="M509.58,440.61c1.25-2.11,3.19-3.77,5.26-5.06c-2.09-1.27-3.95-2.99-5.26-5.06h-1.25c1.31,2,2.89,3.75,4.83,5.06
				c-1.94,1.33-3.58,3.09-4.85,5.06H509.58z"/>
		</g>
	</g>
</g>
<g>
	<g>
		<line class="st1" x1="85.08" y1="432.38" x2="107.55" y2="432.38"/>
		<g>
			<path d="M85.88,427.32c-1.25,2.11-3.19,3.77-5.26,5.06c2.09,1.27,3.95,2.99,5.26,5.06h1.25c-1.31-2-2.89-3.75-4.83-5.06
				c1.95-1.33,3.58-3.09,4.85-5.06H85.88z"/>
			<path d="M88.89,427.32c-1.25,2.11-3.19,3.77-5.26,5.06c2.09,1.27,3.95,2.99,5.26,5.06h1.25c-1.31-2-2.89-3.75-4.83-5.06
				c1.94-1.33,3.58-3.09,4.85-5.06H88.89z"/>
		</g>
	</g>
</g>
<g>
	<g>
		<g>
			<path d="M119.85,484.98c1.93,0,1.93-3,0-3C117.92,481.98,117.91,484.98,119.85,484.98L119.85,484.98z"/>
		</g>
	</g>
	<g>
		<polygon class="st5" points="133.9,469.86 117.47,474 114.79,488.97 129.46,483.88 		"/>
		<line class="st5" x1="114.2" y1="489.13" x2="104.94" y2="476.15"/>
		<line class="st5" x1="104.94" y1="476.15" x2="107.64" y2="462.65"/>
		<g>
			<g>
				<path d="M128.46,476.7c1.93,0,1.93-3,0-3C126.53,473.7,126.52,476.7,128.46,476.7L128.46,476.7z"/>
			</g>
		</g>
		<g>
			<line class="st1" x1="117.47" y1="474" x2="107.64" y2="462.65"/>
			<line class="st1" x1="133.9" y1="469.86" x2="124.35" y2="459.9"/>
			<line class="st1" x1="107.64" y1="462.65" x2="124.35" y2="459.9"/>
			<line class="st1" x1="117.47" y1="474" x2="133.9" y2="469.86"/>
		</g>
		<polygon class="st5" points="89.98,474 87.58,461.03 97.3,454.28 98.46,466.31 		"/>
		<line class="st5" x1="97.22" y1="453.82" x2="85.04" y2="451.48"/>
		<g>
			<path class="st4" d="M85.24,460.35c-2.96-0.86-5.91-1.72-8.87-2.59"/>
			<line class="st4" x1="89.98" y1="474" x2="79.84" y2="470.47"/>
			<line class="st4" x1="76.37" y1="457.76" x2="79.84" y2="470.47"/>
			<line class="st4" x1="87.58" y1="461.03" x2="89.98" y2="474"/>
		</g>
		<line class="st1" x1="85.04" y1="451.48" x2="76.37" y2="457.76"/>
		<g>
			<g>
				<path d="M94.05,464.96c1.93,0,1.93-3,0-3C92.11,461.96,92.11,464.96,94.05,464.96L94.05,464.96z"/>
			</g>
		</g>
		<line class="st1" x1="87.58" y1="461.03" x2="76.37" y2="457.76"/>
		<g>
			<g>
				<path d="M81.02,470.44c1.93,0,1.93-3,0-3C79.09,467.44,79.09,470.44,81.02,470.44L81.02,470.44z"/>
			</g>
		</g>
		<g>
			<g>
				<path d="M83.13,467.19c1.93,0,1.93-3,0-3C81.2,464.19,81.2,467.19,83.13,467.19L83.13,467.19z"/>
			</g>
		</g>
		<g>
			<g>
				<path d="M85.41,464.1c1.93,0,1.93-3,0-3C83.48,461.1,83.48,464.1,85.41,464.1L85.41,464.1z"/>
			</g>
		</g>
		<g>
			<g>
				<path d="M80.86,458.57c1.93,0,1.93-3,0-3C78.93,455.57,78.92,458.57,80.86,458.57L80.86,458.57z"/>
			</g>
		</g>
		<g>
			<g>
				<path d="M92.89,456.45c1.93,0,1.93-3,0-3C90.96,453.45,90.96,456.45,92.89,456.45L92.89,456.45z"/>
			</g>
		</g>
		<g>
			<g>
				<path d="M118.92,472.07c1.93,0,1.93-3,0-3C116.99,469.07,116.99,472.07,118.92,472.07L118.92,472.07z"/>
			</g>
		</g>
		<g>
			<g>
				<path d="M114.53,466.54c1.93,0,1.93-3,0-3C112.6,463.54,112.6,466.54,114.53,466.54L114.53,466.54z"/>
			</g>
		</g>
		<g>
			<g>
				<path d="M127.71,470.28c1.93,0,1.93-3,0-3C125.78,467.28,125.77,470.28,127.71,470.28L127.71,470.28z"/>
			</g>
		</g>
		<g>
			<g>
				<path d="M123.48,465.56c1.93,0,1.93-3,0-3C121.55,462.56,121.54,465.56,123.48,465.56L123.48,465.56z"/>
			</g>
		</g>
		<g>
			<g>
				<path d="M110.46,477.28c1.93,0,1.93-3,0-3C108.53,474.28,108.53,477.28,110.46,477.28L110.46,477.28z"/>
			</g>
		</g>
	</g>
</g>
<polygon class="st5" points="297.39,198.3 306.85,208.78 306.85,199.29 297.39,188.06 "/>
<polygon class="st4" points="297.39,188.06 287.94,198.42 287.94,208.18 297.05,198.69 "/>
<g>
	<g>
		<path d="M153.95,340.17c1.93,0,1.93-3,0-3C152.02,337.17,152.02,340.17,153.95,340.17L153.95,340.17z"/>
	</g>
</g>
<g>
	<g>
		<line class="st1" x1="190.07" y1="304.76" x2="189" y2="305.81"/>
		<line class="st14" x1="186.75" y1="307.98" x2="160.99" y2="333.01"/>
		<line class="st1" x1="159.87" y1="334.1" x2="158.79" y2="335.14"/>
		<g>
			<polygon points="184.17,305.86 189.32,305.49 188.81,310.63 194.71,300.26 			"/>
			<polygon class="st15" points="186.01,305.42 193.8,301.14 189.75,305.07 			"/>
		</g>
	</g>
</g>
</svg>
